<svg xmlns="http://www.w3.org/2000/svg" xmlns:xlink="http://www.w3.org/1999/xlink" id="Layer_1" x="0px" y="0px" viewBox="0 0 300 300" style="enable-background:new 0 0 300 300;" xml:space="preserve"><style type="text/css">	.st0{fill:#8DC640;}	.st1{fill:none;stroke:#8DC640;stroke-width:8.6282;stroke-miterlimit:10;}</style><g>	<path class="st0" d="M213.94,141.66l4.85,3.75c1.34,1.04,3.25,0.92,4.45-0.28l11.98-11.99c0.68-0.69,1.04-1.63,0.98-2.6  c-0.06-0.97-0.54-1.86-1.3-2.45l-20.59-15.94V81.37c0-1.86-1.51-3.37-3.37-3.37h-18.9c-1.86,0-3.37,1.51-3.37,3.37v10.94  L151.9,63.86c-1.22-0.94-2.91-0.94-4.13,0l-83.01,64.23c-0.77,0.59-1.24,1.49-1.3,2.45c-0.06,0.97,0.29,1.91,0.98,2.6l11.96,12  c0.65,0.66,1.52,0.99,2.39,0.99c0.72,0,1.45-0.23,2.06-0.71l4.87-3.77v71.29H78.3c-1.86,0-3.37,1.51-3.37,3.37v16.21  c0,1.86,1.51,3.37,3.37,3.37h143.07c1.86,0,3.37-1.51,3.37-3.37v-16.21c0-1.86-1.51-3.37-3.37-3.37h-7.42v-19.07  c0-1.86-1.51-3.37-3.37-3.37c-1.86,0-3.37,1.51-3.37,3.37v19.07h-53.99v-5.08c16.33-9.4,26.39-26.7,26.39-45.63  c0-19.62-10.8-37.49-28.19-46.63c-0.98-0.52-2.16-0.52-3.14,0c-17.39,9.14-28.2,27.01-28.2,46.63c0,18.93,10.06,36.23,26.39,45.63  v5.08H92.47v-76.51l57.36-44.39l57.36,44.39v30.45c0,1.86,1.51,3.37,3.37,3.37c1.86,0,3.37-1.51,3.37-3.37V141.66z M172.26,154.88  l-19.05,19.05v-24.65l12.17-12.17C168.86,142.44,171.23,148.48,172.26,154.88z M153.21,199.88v-16.41l19.61-19.61  C172.31,178.39,165.01,191.66,153.21,199.88z M161.23,131.71l-8.03,8.03V124.6C156.18,126.67,158.87,129.06,161.23,131.71z   M146.46,124.6v34.61l-15.67-15.67C134.15,136,139.53,129.43,146.46,124.6z M126.82,162.24c0-3.99,0.52-7.89,1.49-11.64l17.9,17.9  c0.08,0.08,0.16,0.16,0.25,0.23v31.15C134.22,191.35,126.82,177.4,126.82,162.24z M217.99,219.7v9.46H81.67v-9.46H217.99z   M195.41,84.75h12.15v22.19l-12.15-9.4V84.75z M147.77,85.11l-68.69,53.16l-7.16-7.18l77.92-60.3l77.91,60.29l-7.17,7.18  L151.9,85.11C150.68,84.17,148.98,84.17,147.77,85.11z"></path>	<circle class="st1" cx="149.83" cy="149.53" r="135"></circle>	<path class="st0" d="M213.94,141.66l4.85,3.75c1.34,1.04,3.25,0.92,4.45-0.28l11.98-11.99c0.68-0.69,1.04-1.63,0.98-2.6  c-0.06-0.97-0.54-1.86-1.3-2.45l-20.59-15.94V81.37c0-1.86-1.51-3.37-3.37-3.37h-18.9c-1.86,0-3.37,1.51-3.37,3.37v10.94  L151.9,63.86c-1.22-0.94-2.91-0.94-4.13,0l-83.01,64.23c-0.77,0.59-1.24,1.49-1.3,2.45c-0.06,0.97,0.29,1.91,0.98,2.6l11.96,12  c0.65,0.66,1.52,0.99,2.39,0.99c0.72,0,1.45-0.23,2.06-0.71l4.87-3.77v71.29H78.3c-1.86,0-3.37,1.51-3.37,3.37v16.21  c0,1.86,1.51,3.37,3.37,3.37h143.07c1.86,0,3.37-1.51,3.37-3.37v-16.21c0-1.86-1.51-3.37-3.37-3.37h-7.42v-19.07  c0-1.86-1.51-3.37-3.37-3.37c-1.86,0-3.37,1.51-3.37,3.37v19.07h-53.99v-5.08c16.33-9.4,26.39-26.7,26.39-45.63  c0-19.62-10.8-37.49-28.19-46.63c-0.98-0.52-2.16-0.52-3.14,0c-17.39,9.14-28.2,27.01-28.2,46.63c0,18.93,10.06,36.23,26.39,45.63  v5.08H92.47v-76.51l57.36-44.39l57.36,44.39v30.45c0,1.86,1.51,3.37,3.37,3.37c1.86,0,3.37-1.51,3.37-3.37V141.66z M172.26,154.88  l-19.05,19.05v-24.65l12.17-12.17C168.86,142.44,171.23,148.48,172.26,154.88z M153.21,199.88v-16.41l19.61-19.61  C172.31,178.39,165.01,191.66,153.21,199.88z M161.23,131.71l-8.03,8.03V124.6C156.18,126.67,158.87,129.06,161.23,131.71z   M146.46,124.6v34.61l-15.67-15.67C134.15,136,139.53,129.43,146.46,124.6z M126.82,162.24c0-3.99,0.52-7.89,1.49-11.64l17.9,17.9  c0.08,0.08,0.16,0.16,0.25,0.23v31.15C134.22,191.35,126.82,177.4,126.82,162.24z M217.99,219.7v9.46H81.67v-9.46H217.99z   M195.41,84.75h12.15v22.19l-12.15-9.4V84.75z M147.77,85.11l-68.69,53.16l-7.16-7.18l77.92-60.3l77.91,60.29l-7.17,7.18  L151.9,85.11C150.68,84.17,148.98,84.17,147.77,85.11z"></path></g></svg>