<svg xmlns="http://www.w3.org/2000/svg" xmlns:xlink="http://www.w3.org/1999/xlink" id="Layer_1" x="0px" y="0px" viewBox="0 0 300 300" style="enable-background:new 0 0 300 300;" xml:space="preserve"><style type="text/css">	.st0{fill:#8DC640;}	.st1{fill:none;stroke:#8DC640;stroke-width:8.6282;stroke-miterlimit:10;}</style><g>	<g>		<g>			<g>				<g>					<g>						<g>							<path class="st0" d="M172.3,74.87c0,2.58-0.45,5.06-1.26,7.36c10.2,3.17,19.42,8.6,27.08,15.68        c1.62-1.89,3.57-3.51,5.79-4.79c0.27-0.16,0.56-0.3,0.84-0.45c-9.05-8.65-20.15-15.18-32.48-18.8        C172.29,74.21,172.3,74.54,172.3,74.87z"></path>							<path class="st0" d="M95.25,92.68c0.28,0.15,0.56,0.29,0.84,0.45c2.22,1.28,4.17,2.9,5.79,4.79        c7.66-7.09,16.88-12.51,27.08-15.68c-0.81-2.31-1.26-4.78-1.26-7.36c0-0.33,0.01-0.66,0.03-0.99        C115.4,77.5,104.3,84.03,95.25,92.68z"></path>							<path class="st0" d="M79.05,150c0-5.38,0.61-10.62,1.75-15.66c-2.45-0.46-4.83-1.33-7.01-2.59        c-0.29-0.17-0.57-0.34-0.85-0.52c-1.47,6.02-2.25,12.3-2.25,18.77c0,6.47,0.78,12.75,2.25,18.77        c0.28-0.18,0.56-0.35,0.85-0.52c2.18-1.26,4.55-2.13,7.01-2.59C79.66,160.62,79.05,155.38,79.05,150z"></path>							<path class="st0" d="M204.75,207.32c-0.28-0.15-0.56-0.29-0.84-0.45c-2.22-1.28-4.17-2.9-5.79-4.79        c-7.66,7.09-16.88,12.51-27.08,15.68c0.81,2.31,1.26,4.78,1.26,7.36c0,0.33-0.01,0.66-0.03,0.99        C184.6,222.5,195.7,215.97,204.75,207.32z"></path>							<path class="st0" d="M227.06,131.23c-0.28,0.18-0.56,0.35-0.85,0.52c-2.18,1.26-4.55,2.13-7.01,2.59        c1.14,5.04,1.75,10.28,1.75,15.66c0,5.38-0.61,10.62-1.75,15.66c2.45,0.46,4.83,1.33,7.01,2.59        c0.29,0.17,0.57,0.34,0.85,0.52c1.47-6.02,2.25-12.31,2.25-18.77C229.31,143.53,228.52,137.25,227.06,131.23z"></path>							<path class="st0" d="M127.7,225.13c0-2.58,0.45-5.06,1.26-7.36c-10.21-3.18-19.43-8.6-27.09-15.69        c-1.6,1.87-3.53,3.5-5.78,4.8c-0.27,0.16-0.56,0.3-0.84,0.45c9.05,8.65,20.15,15.18,32.48,18.8        C127.71,225.79,127.7,225.46,127.7,225.13z"></path>						</g>						<path class="st0" d="M150,92.39c-9.66,0-17.52-7.86-17.52-17.52c0-9.66,7.86-17.52,17.52-17.52c9.66,0,17.52,7.86,17.52,17.52       C167.52,84.53,159.66,92.39,150,92.39z M150,65.71c-5.05,0-9.16,4.11-9.16,9.16c0,5.05,4.11,9.16,9.16,9.16       c5.05,0,9.16-4.11,9.16-9.16C159.16,69.82,155.05,65.71,150,65.71z M84.91,129.95c-2.97,0-5.98-0.75-8.73-2.34       c-4.05-2.34-6.95-6.12-8.16-10.64c-1.21-4.52-0.59-9.24,1.75-13.29c4.83-8.37,15.57-11.24,23.93-6.41       c4.05,2.34,6.95,6.12,8.16,10.64c1.21,4.52,0.59,9.24-1.75,13.29C96.87,126.81,90.97,129.95,84.91,129.95z M84.95,103.28       c-3.17,0-6.26,1.64-7.95,4.58c-1.22,2.12-1.55,4.59-0.92,6.95c0.63,2.36,2.15,4.34,4.27,5.56c4.38,2.53,9.99,1.02,12.52-3.35       c1.22-2.12,1.55-4.59,0.92-6.95c-0.63-2.36-2.15-4.34-4.27-5.56C88.08,103.67,86.51,103.28,84.95,103.28z M84.97,205.08       c-6.06,0-11.96-3.14-15.2-8.76c-2.34-4.05-2.96-8.77-1.75-13.29c1.21-4.52,4.11-8.3,8.16-10.64       c8.37-4.83,19.1-1.95,23.93,6.41c4.83,8.37,1.95,19.1-6.41,23.93C90.95,204.32,87.94,205.08,84.97,205.08z M84.92,178.4       c-1.55,0-3.13,0.39-4.57,1.23c-2.12,1.22-3.64,3.2-4.27,5.56c-0.63,2.36-0.31,4.83,0.92,6.95c1.22,2.12,3.2,3.64,5.56,4.27       c2.36,0.63,4.83,0.31,6.95-0.92c2.12-1.22,3.64-3.2,4.27-5.56c0.63-2.36,0.31-4.83-0.92-6.95       C91.18,180.05,88.09,178.4,84.92,178.4z M150,242.65c-9.66,0-17.52-7.86-17.52-17.52c0-9.66,7.86-17.52,17.52-17.52       c9.66,0,17.52,7.86,17.52,17.52C167.52,234.79,159.66,242.65,150,242.65z M150,215.96c-5.05,0-9.16,4.11-9.16,9.16       s4.11,9.16,9.16,9.16c5.05,0,9.16-4.11,9.16-9.16S155.05,215.96,150,215.96z M215.03,205.09c-3.04,0-6.03-0.8-8.73-2.35       c-4.05-2.34-6.95-6.12-8.16-10.64c-1.21-4.52-0.59-9.24,1.75-13.29c4.83-8.37,15.57-11.24,23.93-6.41       c4.05,2.34,6.95,6.12,8.16,10.64c1.21,4.52,0.59,9.24-1.75,13.29c-2.34,4.05-6.12,6.95-10.64,8.16       C218.09,204.89,216.55,205.09,215.03,205.09z M215.08,178.4c-3.17,0-6.26,1.64-7.95,4.58c-1.22,2.12-1.55,4.59-0.92,6.95       c0.63,2.36,2.15,4.34,4.27,5.56c2.12,1.22,4.59,1.55,6.95,0.92c2.36-0.63,4.34-2.15,5.56-4.27c1.22-2.12,1.55-4.59,0.92-6.95       c-0.63-2.36-2.15-4.34-4.27-5.56C218.2,178.8,216.63,178.4,215.08,178.4z M215.09,129.95c-6.06,0-11.96-3.14-15.2-8.76       c-2.34-4.05-2.96-8.77-1.75-13.29c1.21-4.52,4.11-8.3,8.16-10.64c8.37-4.83,19.1-1.95,23.93,6.41       c2.34,4.05,2.96,8.77,1.75,13.29c-1.21,4.52-4.11,8.3-8.16,10.64C221.07,129.2,218.06,129.95,215.09,129.95z M215.05,103.28       c-1.55,0-3.13,0.39-4.57,1.23c-4.38,2.53-5.88,8.14-3.35,12.52c2.53,4.37,8.14,5.88,12.52,3.35c2.12-1.22,3.64-3.2,4.27-5.56       c0.63-2.36,0.31-4.83-0.92-6.95C221.3,104.92,218.21,103.28,215.05,103.28z"></path>					</g>				</g>			</g>		</g>		<g>			<g>				<g>					<rect x="126.58" y="119.91" class="st0" width="9.67" height="19.47"></rect>				</g>				<path class="st0" d="M150,111.33l-33.09,33.19v39.86h25.26v-0.54v-11.7v-8.13h15.65v8.13v11.7v0.54h25.26v-39.86L150,111.33z"></path>			</g>		</g>	</g>	<circle class="st1" cx="150" cy="150" r="135"></circle></g></svg>