<svg xmlns="http://www.w3.org/2000/svg" xmlns:xlink="http://www.w3.org/1999/xlink" id="Layer_1" x="0px" y="0px" viewBox="0 0 300 300" style="enable-background:new 0 0 300 300;" xml:space="preserve"><style type="text/css">	.st0{fill:#8DC640;}	.st1{fill:none;stroke:#8DC640;stroke-width:8.6282;stroke-miterlimit:10;}</style><g>	<circle class="st1" cx="150" cy="150" r="135"></circle>	<path class="st0" d="M244.12,127.71l-65.18-47.38v-23.5c0-1.27-0.82-2.38-2.01-2.83l-25.92-9.05c-0.3-0.11-0.63-0.15-0.97-0.15  h-0.04c-0.34,0-0.67,0.07-0.97,0.15l-25.92,9.05c-1.19,0.41-2.01,1.56-2.01,2.83v23.54l-65.22,47.34  c-1.04,0.74-1.49,2.09-1.08,3.31l6.44,19.85c0.3,0.89,1.01,1.6,1.9,1.9c0.3,0.11,0.6,0.15,0.93,0.15c0.63,0,1.23-0.19,1.75-0.56  l10.32-7.52v84.36c0,1.64,1.34,2.98,2.98,2.98h140c1.64,0,2.98-1.34,2.98-2.98v-85.55l12.03,8.75c0.52,0.37,1.12,0.56,1.75,0.56  c0.3,0,0.63-0.04,0.93-0.15c0.89-0.3,1.6-1.01,1.9-1.9l6.44-19.85C245.61,129.84,245.17,128.5,244.12,127.71L244.12,127.71z   M127.03,58.92l22.98-8.01l22.98,8.01v23.24c0,12.96-18.29,28.16-22.98,30.8c-4.69-2.64-22.98-17.8-22.98-30.8V58.92z   M65.65,145.18l-4.51-13.89l60.56-44.02c1.08,4.51,3.46,8.83,6.22,12.66L65.65,145.18z M216.15,226.26H82.15v-85.7l49.5-35.98  c0.82,0.93,1.6,1.82,2.42,2.64c2.83,2.98,6.11,5.92,9.16,8.23c4.8,3.69,6.11,3.69,6.78,3.69c0.71,0,1.97,0,6.78-3.69  c3.05-2.35,6.33-5.25,9.16-8.23c0.78-0.82,1.6-1.71,2.42-2.64l47.78,34.71V226.26z M234.37,145.18l-62.27-45.25  c2.76-3.84,5.14-8.19,6.22-12.66l60.56,44.02L234.37,145.18z M143.79,92.26l-8.04-9.61c-1.04-1.27-0.89-3.13,0.37-4.21  c1.27-1.04,3.13-0.89,4.21,0.37l6.11,7.3l17.43-14.79c1.27-1.08,3.13-0.89,4.21,0.34c1.08,1.27,0.89,3.13-0.34,4.21L148,92.59  c-0.56,0.45-1.23,0.71-1.94,0.71c-0.07,0-0.19,0-0.26,0C145.02,93.22,144.31,92.85,143.79,92.26L143.79,92.26z M172.99,151.18  c0-13.15-10.69-23.8-23.8-23.8s-23.8,10.69-23.8,23.8v4.47h-9.72c-1.64,0-2.98,1.34-2.98,2.98v51.14c0,1.64,1.34,2.98,2.98,2.98  h67.11c1.64,0,2.98-1.34,2.98-2.98v-51.14c0-1.64-1.34-2.98-2.98-2.98h-9.72v-4.47H172.99z M131.31,151.18  c0-9.83,8.01-17.84,17.84-17.84s17.84,8.01,17.84,17.84v4.47h-35.72v-4.47H131.31z M179.73,206.78h-61.16v-45.18h61.16V206.78z   M146.17,187.16v9.8c0,1.64,1.34,2.98,2.98,2.98s2.98-1.34,2.98-2.98v-9.8c3.84-1.27,6.59-4.84,6.59-9.09  c0-5.29-4.28-9.57-9.57-9.57c-5.29,0-9.57,4.28-9.57,9.57C139.58,182.31,142.34,185.89,146.17,187.16L146.17,187.16z   M149.15,174.46c1.97,0,3.61,1.6,3.61,3.61c0,1.97-1.6,3.61-3.61,3.61s-3.61-1.6-3.61-3.61  C145.54,176.06,147.18,174.46,149.15,174.46L149.15,174.46z"></path></g></svg>