<svg xmlns="http://www.w3.org/2000/svg" xmlns:xlink="http://www.w3.org/1999/xlink" id="Layer_1" x="0px" y="0px" viewBox="0 0 300 300" style="enable-background:new 0 0 300 300;" xml:space="preserve"><style type="text/css">	.st0{fill:#8DC640;}	.st1{fill:none;stroke:#8DC640;stroke-width:8.6282;stroke-miterlimit:10;}</style><g>	<circle class="st1" cx="150" cy="150" r="135"></circle>	<g>		<path class="st0" d="M101.22,147.61l48.78,53.7l48.78-53.7l-12.6-30.51h-72.35L101.22,147.61z M112.34,150.2h17.22l13.63,33.96   L112.34,150.2z M136.54,150.2h26.92L150,183.72L136.54,150.2z M156.82,184.15l13.63-33.96h17.22L156.82,184.15z M190.14,143.71   h-16.18l9.75-15.57L190.14,143.71z M178.9,123.59l-10.68,17.06l-13.66-17.06H178.9z M162.35,143.71h-24.71L150,128.28   L162.35,143.71z M145.44,123.59l-13.66,17.06l-10.68-17.06H145.44z M126.04,143.71h-16.18l6.43-15.57L126.04,143.71z"></path>		<path class="st0" d="M220.59,115.1l11.75,9.38l4.04-5.07L150,50.44l-86.38,68.97l4.04,5.07l11.75-9.38v111.45h141.17V115.1z    M214.1,220.06H85.9V109.92L150,58.75l64.1,51.18V220.06z"></path>	</g></g></svg>