<svg xmlns="http://www.w3.org/2000/svg" width="512" height="512"><path d="M0 0 C2.14974294 1.80060586 4.14538857 3.64002388 6.078125 5.671875 C7.94636359 7.27468221 7.94636359 7.27468221 10.4140625 6.72265625 C11.26742188 6.48417969 12.12078125 6.24570313 13 6 C23.50642547 5.00172593 32.56777486 7.57544752 41 14 C41.845625 14.5775 42.69125 15.155 43.5625 15.75 C47.83817637 19.69677819 50.66361162 23.98166975 51.625 29.75 C52.63679378 33.13971573 52.63679378 33.13971573 55.31640625 34.11328125 C57.26537554 34.75763436 59.22013146 35.3846918 61.1796875 35.99609375 C69.27947617 38.87925952 73.21602927 45.66139011 77 53 C77.51433594 53.99 77.51433594 53.99 78.0390625 55 C80.85170841 61.30873849 81.09504576 68.99475112 79.28125 75.62890625 C78.72789593 78.05925999 78.72789593 78.05925999 80.328125 79.921875 C80.96234375 80.52515625 81.5965625 81.1284375 82.25 81.75 C89.20708321 89.24865256 89.61483721 97.28224424 89.28515625 107.1796875 C88.67059336 115.41314651 86.29558803 119.88103904 81 126 C82.7015625 126.05607422 82.7015625 126.05607422 84.4375 126.11328125 C99.29928462 126.72092652 99.29928462 126.72092652 106 130 C106.14695312 128.91332031 106.14695312 128.91332031 106.296875 127.8046875 C107.62131228 119.24151541 110.24460258 113.84514222 117.01171875 108.32421875 C122.44029094 104.70872568 128.53647622 103.30747959 135 104 C142.44819999 105.59604286 148.07098652 108.68691913 152.40014648 115.06176758 C156.30343258 122.15628892 156.61434041 128.1378384 156.3125 136.125 C156.28994141 137.27226562 156.26738281 138.41953125 156.24414062 139.6015625 C156.18578878 142.40245114 156.10398152 145.20049749 156 148 C157.59714844 147.73509766 157.59714844 147.73509766 159.2265625 147.46484375 C166.99912351 146.50735435 172.76316149 148.84350615 179.0546875 153.359375 C183.4849217 157.09571709 185.54301738 161.50267157 187 167 C187.26344843 170.40639105 187.23315503 173.79613846 187.1953125 177.2109375 C187.19106766 178.66314194 187.19106766 178.66314194 187.18673706 180.14468384 C187.17558696 183.22158428 187.1504918 186.29818828 187.125 189.375 C187.11496352 191.4674437 187.10583884 193.55989198 187.09765625 195.65234375 C187.07566453 200.76834251 187.04117025 205.88412108 187 211 C188.66724121 210.97836792 188.66724121 210.97836792 190.36816406 210.95629883 C195.33286708 211.01603813 196.99289707 212.14879214 201 215 C205.21492259 220.54110362 204.48639778 226.66142391 204.44604492 233.29223633 C204.43753693 235.42822748 204.46631719 237.56153838 204.49804688 239.69726562 C204.49965936 241.06770754 204.49908045 242.43815414 204.49609375 243.80859375 C204.49794678 245.04407959 204.4997998 246.27956543 204.50170898 247.55249023 C203.78330994 252.48899287 201.577922 255.60771588 197.875 258.875 C194.86689205 260.05208572 193.01415744 260.11690019 189.8203125 260.0703125 C188.91812988 260.06016113 188.01594727 260.05000977 187.08642578 260.03955078 C186.05364502 260.01997314 186.05364502 260.01997314 185 260 C185.00999275 261.9222641 185.00999275 261.9222641 185.02018738 263.88336182 C185.08095301 275.94932828 185.12595082 288.01526377 185.15543652 300.08134842 C185.1711049 306.28492857 185.1923648 312.48838538 185.22631836 318.69189453 C185.25886964 324.67652349 185.27684418 330.66103368 185.28463173 336.64574432 C185.29018282 338.93114848 185.30102248 341.21654601 185.31719017 343.50189972 C185.33890786 346.69835048 185.34196925 349.89430787 185.34057617 353.09082031 C185.35675491 354.51393776 185.35675491 354.51393776 185.3732605 355.96580505 C185.34316552 362.33039665 185.34316552 362.33039665 183.68965149 365.55682373 C180.91174249 367.92950968 178.58121231 368 175 368 C171.57258371 365.91374661 170.27518963 364.8255689 169 361 C169 358.36 169 355.72 169 353 C152.83 353 136.66 353 120 353 C120.33 389.96 120.66 426.92 121 465 C122.65 465 124.3 465 126 465 C126.0928125 463.329375 126.0928125 463.329375 126.1875 461.625 C127.2666853 453.05231677 132.26898256 444.69582361 139.03515625 439.41015625 C147.24833285 433.64825363 154.90443715 431.06270536 165 431 C166.33900896 431.30974811 167.67376744 431.63945029 169 432 C168.98428955 430.87505127 168.9685791 429.75010254 168.95239258 428.59106445 C168.89798784 424.40721835 168.86361164 420.22340338 168.83520508 416.03930664 C168.82014245 414.23033383 168.79968823 412.4213974 168.77368164 410.61254883 C168.7371868 408.00853485 168.72024843 405.4050048 168.70703125 402.80078125 C168.69154739 401.99538406 168.67606354 401.18998688 168.66011047 400.36018372 C168.65873457 395.74284996 168.99153808 392.73978614 172 389 C175 387 175 387 178.5 387.125 C182 388 182 388 183.69866943 389.76359558 C185.18851869 392.3239792 185.35783823 393.71848016 185.32128906 396.6574707 C185.31708954 398.03458977 185.31708954 398.03458977 185.31280518 399.43952942 C185.28945099 400.91772408 185.28945099 400.91772408 185.265625 402.42578125 C185.26839681 404.52278826 185.27233976 406.619794 185.27734375 408.71679688 C185.26899872 412.01529159 185.24999606 415.31282035 185.20947266 418.61108398 C185.17653485 421.80008431 185.18700119 424.98670245 185.203125 428.17578125 C185.17945862 429.15517166 185.15579224 430.13456207 185.13140869 431.14363098 C185.18667341 436.36946656 185.63489134 439.23018374 189.42944336 442.98291016 C190.04959824 443.49898834 190.66975311 444.01506653 191.30870056 444.54678345 C193.77872615 446.66910548 194.94618838 449.14128726 196.3125 452.0625 C196.78300781 453.04347656 197.25351562 454.02445312 197.73828125 455.03515625 C199 458 199 458 199.8203125 461.27734375 C200.72215817 464.2257919 200.72215817 464.2257919 203.50390625 465.03125 C204.51324219 465.1859375 205.52257812 465.340625 206.5625 465.5 C216.91092546 467.65128558 223.82129517 473.54272302 230 482 C232.89033942 486.98708854 235 492.18152467 235 498 C233.41054944 502.7861109 231.43240356 506.42004564 227 509 C224.22431705 509.28921282 221.67513751 509.40456441 218.90049839 509.38031673 C218.07345464 509.38497665 217.24641088 509.38963657 216.3943052 509.3944377 C213.604798 509.40645091 210.8157722 509.396968 208.02626038 509.38768005 C206.01346601 509.3918502 204.00067399 509.39732596 201.98788637 509.40399987 C196.44256232 509.41851503 190.89738612 509.41419085 185.35205376 509.40683305 C179.37717978 509.40211865 173.40233858 509.41459586 167.42747498 509.42485046 C156.39422688 509.44108115 145.3610177 509.44347671 134.32776263 509.43854547 C124.13529046 509.43399214 113.94283591 509.43458266 103.7503643 509.44038582 C102.38431308 509.44114268 101.01826186 509.44189866 99.65221063 509.44265376 C97.59381278 509.44379893 95.53541492 509.44494881 93.47701708 509.44611301 C74.3342228 509.45682158 55.19143442 509.46153958 36.04863834 509.45364285 C34.96571987 509.45319709 34.96571987 509.45319709 33.86092425 509.45274232 C27.99783662 509.45029327 22.13474906 509.44768174 16.27166151 509.44505819 C-6.60106539 509.43495477 -29.47371889 509.44331149 -52.34643555 509.46655273 C-78.03235277 509.49261015 -103.7182258 509.50547735 -129.40415674 509.49836498 C-132.14162067 509.4976489 -134.8790846 509.49697451 -137.61654854 509.49632454 C-138.29060286 509.49615473 -138.96465717 509.49598492 -139.65913738 509.49580997 C-149.84544177 509.49350454 -160.03170521 509.50149553 -170.21800041 509.51461601 C-181.79916695 509.52950638 -193.38023897 509.53002296 -204.96140402 509.5125451 C-210.8738686 509.50400164 -216.78614934 509.50196691 -222.69860458 509.51719666 C-228.10638019 509.53095434 -233.51381291 509.52639625 -238.92156822 509.50695742 C-240.88249266 509.50316954 -242.84344398 509.50619873 -244.80434465 509.51656907 C-247.46153425 509.52962732 -250.11752071 509.51825616 -252.77465725 509.50057125 C-253.54329937 509.51022176 -254.31194148 509.51987227 -255.10387579 509.52981523 C-260.02976426 509.46208974 -262.56041593 508.5326613 -266 505 C-268.65574545 500.7165396 -269.31186553 498.10444193 -268.5 493.125 C-265.99044021 483.14723216 -260.24712645 474.9460689 -251.5078125 469.42578125 C-246.68321494 466.86683817 -242.44991341 465.35542914 -237 465 C-236.938125 463.88625 -236.87625 462.7725 -236.8125 461.625 C-235.91364889 454.39566892 -232.05026392 447.1988011 -227 442 C-225.22918312 441.21505913 -225.22918312 441.21505913 -223.42259216 440.41426086 C-220.55282479 438.35542248 -220.04743709 437.23817171 -219.34663582 433.71959496 C-218.99705066 429.21220466 -219.06817946 424.70153561 -219.11352539 420.18432617 C-219.105636 418.43975236 -219.09467465 416.69519012 -219.08087158 414.95065308 C-219.05212867 410.2172997 -219.06638658 405.48493441 -219.08831334 400.75158095 C-219.10393696 395.80406193 -219.08008765 390.85673785 -219.06040955 385.90925598 C-219.02915712 376.54178475 -219.03344989 367.17467977 -219.05048412 357.80718547 C-219.06814937 347.14214286 -219.04623318 336.47729682 -219.02097714 325.81228292 C-218.96991405 303.87478772 -218.96860642 281.93752196 -219 260 C-220.02299194 260.02936646 -220.02299194 260.02936646 -221.06665039 260.05932617 C-221.96375732 260.07455322 -222.86086426 260.08978027 -223.78515625 260.10546875 C-225.11752319 260.13483521 -225.11752319 260.13483521 -226.47680664 260.16479492 C-230.24701302 259.91855503 -232.2361195 258.49423362 -235 256 C-239.15879546 250.38882808 -238.48662275 244.37554253 -238.44604492 237.70776367 C-238.43753693 235.57177252 -238.46631719 233.43846162 -238.49804688 231.30273438 C-238.49965936 229.93229246 -238.49908045 228.56184586 -238.49609375 227.19140625 C-238.49794678 225.95592041 -238.4997998 224.72043457 -238.50170898 223.44750977 C-237.90541561 219.35006027 -236.57693106 217.20525051 -234 214 C-229.52318049 211.01545366 -226.28060398 210.88751376 -221 211 C-221.02618408 209.68918457 -221.05236816 208.37836914 -221.0793457 207.02783203 C-221.17040616 202.12647832 -221.22745139 197.22519813 -221.2746582 192.32324219 C-221.29967575 190.20885611 -221.33370092 188.09455541 -221.37719727 185.98046875 C-221.43841332 182.92686808 -221.46633792 179.87441861 -221.48828125 176.8203125 C-221.51408768 175.88760529 -221.5398941 174.95489807 -221.56648254 173.993927 C-221.56937701 167.09467094 -219.92472809 161.72440016 -216 156 C-211.27225004 151.5640136 -206.11120387 148.00482398 -199.5625 147.3125 C-198.82128906 147.22613281 -198.08007812 147.13976562 -197.31640625 147.05078125 C-194.74270442 146.99435946 -192.51055548 147.46364104 -190 148 C-190.0314209 146.88141602 -190.0314209 146.88141602 -190.06347656 145.74023438 C-190.14716634 142.32696275 -190.19882794 138.91390776 -190.25 135.5 C-190.28351563 134.32695312 -190.31703125 133.15390625 -190.3515625 131.9453125 C-190.44476813 123.65001121 -189.48537677 118.21678346 -184.17578125 111.79296875 C-178.38449987 106.80299674 -173.1048082 104.43980088 -165.5 103.625 C-157.01543934 104.53406007 -150.61041877 107.42489384 -145 114 C-141.89906869 119.07262174 -140.50070143 124.11675822 -140 130 C-139.030625 129.525625 -138.06125 129.05125 -137.0625 128.5625 C-130.1250915 125.89329746 -122.3392784 126.24186258 -115 126 C-115.40992188 125.49210938 -115.81984375 124.98421875 -116.2421875 124.4609375 C-116.78101563 123.77257812 -117.31984375 123.08421875 -117.875 122.375 C-118.40867188 121.70210938 -118.94234375 121.02921875 -119.4921875 120.3359375 C-124.47239613 112.62048476 -123.83765138 102.83931616 -123 94 C-121.56004036 87.93744267 -118.10263161 83.47688929 -114.07421875 78.82421875 C-112.78102879 77.07450533 -112.78102879 77.07450533 -113.3125 75.12109375 C-113.539375 74.42113281 -113.76625 73.72117187 -114 73 C-115.07567474 60.97360378 -111.70179359 51.28484123 -104 42 C-100.07678896 38.20120368 -96.48479337 36.00322384 -91.1875 34.6875 C-88.9028816 34.11179084 -88.9028816 34.11179084 -87 33 C-85.83317191 30.83557842 -85.30671676 28.78921583 -84.71484375 26.40625 C-82.3813757 18.55151601 -75.89457775 13.77693238 -69 10 C-61.23456311 5.89413682 -53.00720523 4.34376607 -44.37890625 6.72265625 C-41.94165019 7.27202115 -41.94165019 7.27202115 -40.078125 5.671875 C-39.47484375 5.03765625 -38.8715625 4.4034375 -38.25 3.75 C-28.98754474 -4.84350016 -11.1038051 -6.46241457 0 0 Z M-29.875 16.75 C-31.36784899 19.73569798 -32.19227337 22.76909347 -33 26 C-36.35982438 26.67063688 -39.56902952 27.14467948 -43 27 C-45.05279996 25.39881603 -47.05651499 23.73223664 -49 22 C-54.82703614 21.2600589 -58.83535296 21.99511445 -64 25 C-66.99572278 27.34371253 -69.21667721 29.62135532 -71 33 C-71.31103263 36.19626955 -71.20664468 39.0761213 -70.85546875 42.265625 C-71 45 -71 45 -72.62890625 47.37109375 C-75.6635595 49.45585554 -77.13485312 49.21054078 -80.75 48.8125 C-85.49250462 48.64457249 -87.91752732 49.02102512 -91.5625 52.125 C-95.96706784 56.71270996 -98.11735595 60.6002783 -98.5 67 C-98.40920543 71.06154385 -98.18171438 71.78282915 -95.4375 75.0625 C-93 78 -93 78 -92.890625 80.36328125 C-93.15642534 82.612092 -93.50425139 84.79121906 -94 87 C-94.61488281 87.18175781 -95.22976562 87.36351563 -95.86328125 87.55078125 C-96.67152344 87.80214844 -97.47976562 88.05351563 -98.3125 88.3125 C-99.11300781 88.55613281 -99.91351563 88.79976563 -100.73828125 89.05078125 C-103.15356012 90.06444751 -104.36094739 90.97733933 -106 93 C-108.71209932 99.64464333 -108.42209746 106.15197159 -105.9375 112.875 C-103.54208936 115.50222457 -101.07207701 116.57268867 -97.87109375 118.03515625 C-95.44801775 119.28463385 -94.27445698 120.60102216 -93 123 C-92.67 124.32 -92.34 125.64 -92 127 C-86.06 127 -80.12 127 -74 127 C-73.75636719 125.61554688 -73.51273438 124.23109375 -73.26171875 122.8046875 C-71.75136313 115.24091185 -69.1500412 108.03578036 -66.65820312 100.75 C-66.30306641 99.68007812 -65.94792969 98.61015625 -65.58203125 97.5078125 C-65.25436768 96.54504395 -64.9267041 95.58227539 -64.58911133 94.59033203 C-63.97610438 91.89493059 -63.98948859 90.54482002 -65 88 C-66.4854406 86.55555855 -66.4854406 86.55555855 -68.3125 85.3125 C-73.19512407 81.30392592 -75.44235093 76.70807887 -76.37890625 70.48046875 C-76.73527196 62.99678893 -74.39707759 58.01346897 -69.8125 52.25 C-65.15020224 48.52016179 -60.44184928 46.30523116 -54.5 45.5625 C-46.74766821 46.53154147 -40.15000323 48.87603243 -35 55 C-34.01 56.98 -33.02 58.96 -32 61 C-22.1 61 -12.2 61 -2 61 C1.83656989 54.81715056 1.83656989 54.81715056 3 51 C8.97539093 47.31672133 17.07166732 45.1182122 24 46 C31.15082492 48.03395557 35.90462308 51.82203083 40 58 C42.71537492 64.61134763 43.04908152 70.91909727 40.5 77.5625 C38.10066822 82.56980111 34.37171055 85.69999519 30 89 C31.61049903 96.88254297 33.9812517 104.37803462 36.52148438 112.00390625 C36.82505859 112.93332031 37.12863281 113.86273438 37.44140625 114.8203125 C37.85434937 116.06192139 37.85434937 116.06192139 38.27563477 117.32861328 C39.13262827 120.48911985 39.53689656 123.75827595 40 127 C45.94 127 51.88 127 58 127 C58.66 124.36 59.32 121.72 60 119 C62.05859375 117.66796875 62.05859375 117.66796875 64.4375 117.1875 C67.89411222 116.43012039 69.77999548 115.83704505 72 113 C74.37917978 106.10037864 74.53495009 100.06310318 71.9375 93.1875 C69.17457941 90.06807352 65.86991367 88.47073152 62 87 C61.34 87 60.68 87 60 87 C59.80341192 85.58456585 59.61812454 84.16755969 59.4375 82.75 C59.33308594 81.96109375 59.22867188 81.1721875 59.12109375 80.359375 C58.99674272 77.93653563 59.08909671 76.24988135 60 74 C60.99 73.67 61.98 73.34 63 73 C64.75709156 69.48581689 64.53913824 65.83523336 64 62 C61.75841886 56.56996292 58.065877 51.94741935 53 49 C49.88084398 48.82834175 46.91543962 48.93384706 43.8046875 49.21484375 C41 49 41 49 38.62109375 47.36328125 C36.54351944 44.33452834 36.79037876 42.85679526 37.1875 39.25 C37.34844018 34.54249982 36.99241314 32.08041634 33.9375 28.4375 C29.54768213 24.19753535 25.05149595 21.96494266 18.9375 21.5 C15.05998447 21.99238292 14.50753292 22.08054416 11.875 24.5 C9 27 9 27 5.875 27.375 C4.92625 27.25125 3.9775 27.1275 3 27 C2.31292969 26.9175 1.62585938 26.835 0.91796875 26.75 C-1 26 -1 26 -1.94140625 24.0390625 C-2.14636719 23.24242187 -2.35132813 22.44578125 -2.5625 21.625 C-3.45474367 18.2222819 -4.20784642 16.21888533 -7 14 C-14.88238789 11.1742383 -23.38386998 10.69161198 -29.875 16.75 Z M-61 65 C-61.83333333 68.5 -61.83333333 68.5 -61 72 C-57.5735753 75.84174891 -53.86589725 76.71466865 -49 78 C-47 80 -47 80 -46.70874023 83.57470703 C-46.83410171 88.29645658 -48.11516166 92.37387346 -49.66015625 96.8046875 C-49.92888046 97.60987823 -50.19760468 98.41506897 -50.47447205 99.24465942 C-51.32589979 101.79205997 -52.19284048 104.33377145 -53.0625 106.875 C-53.93408909 109.43813 -54.80211223 112.0022755 -55.66123962 114.5696106 C-56.19440886 116.16144816 -56.73501796 117.75081676 -57.28370667 119.33737183 C-57.9122601 121.20687283 -58.46367315 123.10198342 -59 125 C-58.67 125.66 -58.34 126.32 -58 127 C-49.75 127 -41.5 127 -33 127 C-32.34 125.02 -31.68 123.04 -31 121 C-26.82690366 118.25745373 -21.83423072 118.66788056 -17 118.6875 C-16.2059375 118.67138672 -15.411875 118.65527344 -14.59375 118.63867188 C-9.96006033 118.63481047 -6.64873781 118.82808588 -3 122 C-2.34 123.65 -1.68 125.3 -1 127 C7.25 127 15.5 127 24 127 C25.3721652 124.81698515 25.3721652 124.81698515 24.01196289 121.50341797 C23.50561344 119.99738722 22.99196797 118.49379787 22.47265625 116.9921875 C21.92229937 115.34903424 21.37217677 113.70580249 20.82226562 112.0625 C19.9463397 109.47412544 19.06664934 106.88712476 18.18188477 104.30175781 C17.33092007 101.80610564 16.49488054 99.30581033 15.66015625 96.8046875 C15.39453384 96.04292206 15.12891144 95.28115662 14.85523987 94.49630737 C13.1879055 89.47185615 12.6078375 85.30017955 13 80 C15.24697831 77.30362602 17.1661388 76.95336455 20.5625 76 C24.56040188 74.96685855 24.56040188 74.96685855 27 72 C27.66676878 68.54250051 27.66676878 68.54250051 27 65 C24.4268383 62.04843216 22.78197528 61.14362811 18.9375 60.4375 C15.87978777 60.76319094 15.87978777 60.76319094 13.75 63 C12.21640732 65.62901603 11.58483147 67.29819125 10.9375 70.1875 C10 74 10 74 7 76 C4.84388733 76.26742554 4.84388733 76.26742554 2.31665039 76.29052734 C0.89486229 76.3096669 0.89486229 76.3096669 -0.5556488 76.32919312 C-2.0885128 76.33253159 -2.0885128 76.33253159 -3.65234375 76.3359375 C-4.70402237 76.3425943 -5.75570099 76.3492511 -6.83924866 76.35610962 C-9.06428273 76.36623846 -11.28934719 76.37092657 -13.5144043 76.37060547 C-16.92091835 76.37497871 -20.32613713 76.41129727 -23.73242188 76.44921875 C-25.89322473 76.45508677 -28.05403375 76.45905626 -30.21484375 76.4609375 C-31.7446714 76.48249405 -31.7446714 76.48249405 -33.30540466 76.50448608 C-40.36518547 76.45880768 -40.36518547 76.45880768 -43.63110352 74.09838867 C-45.03593559 71.94491414 -45.61092881 70.46159937 -46 67.9375 C-46.59630963 65.15299331 -46.84903319 64.16658406 -48.8125 62 C-53.96099572 59.64640196 -57.26456275 60.83765564 -61 65 Z M-171.875 122.3125 C-175.35628558 126.71530235 -175.13875153 130.58983551 -175.11352539 135.9597168 C-175.11367142 136.76970123 -175.11381744 137.57968567 -175.1139679 138.41421509 C-175.113271 141.09257685 -175.10548903 143.77086913 -175.09765625 146.44921875 C-175.09579128 148.30581118 -175.09436775 150.1624041 -175.09336853 152.01899719 C-175.0895496 156.90655881 -175.07972461 161.79409074 -175.06866455 166.68164062 C-175.05843704 171.66861571 -175.05386803 176.65559558 -175.04882812 181.64257812 C-175.03810181 191.42839847 -175.02103284 201.21419676 -175 211 C-170.71 211 -166.42 211 -162 211 C-161.9906543 209.52313721 -161.98130859 208.04627441 -161.97167969 206.5246582 C-161.93149552 200.9909971 -161.86565949 195.45787547 -161.79248047 189.92456055 C-161.76443472 187.53986597 -161.74313957 185.15508127 -161.72900391 182.77026367 C-161.53282995 151.53282995 -161.53282995 151.53282995 -156 146 C-155.69342115 142.94732038 -155.72154341 139.87867621 -155.6875 136.8125 C-155.64399414 135.53536133 -155.64399414 135.53536133 -155.59960938 134.23242188 C-155.54196351 128.49887558 -156.23079586 125.3845844 -160 121 C-164.45716337 118.77141831 -168.07411023 119.25526258 -171.875 122.3125 Z M123 124 C120.39096793 131.8270962 120.42262703 143.88679237 123.9375 151.375 C124.47697266 152.28378906 124.47697266 152.28378906 125.02734375 153.2109375 C127.05600558 156.94237172 127.13288787 161.07911592 127.20532227 165.24926758 C127.22526749 166.26994827 127.24521271 167.29062897 127.26576233 168.34223938 C127.28247482 169.4319957 127.29918732 170.52175201 127.31640625 171.64453125 C127.33718735 172.7694548 127.35796844 173.89437836 127.37937927 175.0533905 C127.44465792 178.6396994 127.50365899 182.22608027 127.5625 185.8125 C127.60570583 188.24675217 127.64932078 190.68099712 127.69335938 193.11523438 C127.80031714 199.07674953 127.90164568 205.03833695 128 211 C132.29 211 136.58 211 141 211 C141.06960079 200.42946535 141.12286248 189.85898548 141.15543652 179.28826809 C141.17107275 174.37951483 141.19227373 169.4709187 141.22631836 164.56225586 C141.25898462 159.82251001 141.27686838 155.08291502 141.28463173 150.34306526 C141.2901622 148.53741139 141.30096187 146.73176549 141.31719017 144.92617607 C141.33906119 142.39127829 141.34196291 139.85699888 141.34057617 137.32202148 C141.351362 136.58042786 141.36214783 135.83883423 141.3732605 135.07476807 C141.34284849 129.91575469 140.40186438 126.4757069 138 122 C132.3513629 118.23424193 127.62092536 119.24316507 123 124 Z M-142 151 C-145.4775008 156.60717963 -146.57690828 161.1692868 -146.45410156 167.7109375 C-146.45468567 168.54115921 -146.45526978 169.37138092 -146.45587158 170.22676086 C-146.45310736 172.9432811 -146.42209556 175.65867389 -146.390625 178.375 C-146.38315667 180.26928101 -146.37746653 182.1635698 -146.37347412 184.05786133 C-146.35826442 189.02282362 -146.31902314 193.98731146 -146.2746582 198.9520874 C-146.23360452 204.02658675 -146.2154416 209.1011634 -146.1953125 214.17578125 C-146.1525241 224.11739497 -146.08432969 234.0586579 -146 244 C-145.07693715 244.00054477 -144.1538743 244.00108953 -143.20283985 244.00165081 C-120.75239243 244.01604024 -98.30213904 244.05903195 -75.85180378 244.13209057 C-64.995011 244.16675752 -54.13834541 244.19209833 -43.28149414 244.19555664 C-33.81968293 244.19859416 -24.35809814 244.21905605 -14.8963744 244.26052457 C-9.88546302 244.28187552 -4.8748737 244.2944444 0.1360836 244.28615379 C4.85171402 244.27862694 9.56669113 244.29438067 14.28220177 244.32806015 C16.01358108 244.33630993 17.74502516 244.33602395 19.47639847 244.32659721 C21.8401153 244.31500083 24.20168185 244.33405079 26.56523132 244.36076355 C27.59394105 244.34475366 27.59394105 244.34475366 28.6434328 244.32842034 C32.45542033 244.40884517 33.94827356 244.95788541 36.94782734 247.4000597 C39 250 39 250 39.26953125 252.23828125 C38.84635417 254.15885417 38.42317708 256.07942708 38 258 C34.31758777 259.15556626 30.83221276 259.13861116 26.98919678 259.15821838 C25.93051372 259.16562535 25.93051372 259.16562535 24.85044312 259.17318195 C22.48590974 259.18853781 20.12140347 259.19691238 17.75683594 259.20532227 C16.06168377 259.21490229 14.366534 259.22491245 12.67138672 259.23532104 C8.06847984 259.26236266 3.46556271 259.28337627 -1.13737965 259.30332303 C-5.94737936 259.32518714 -10.75734752 259.35257376 -15.56732178 259.37937927 C-24.67615809 259.42930039 -33.78501193 259.47424139 -42.89388251 259.51740164 C-53.26381089 259.56677896 -63.63370761 259.62169526 -74.00360537 259.67708123 C-95.33570741 259.79089236 -116.66783969 259.89773331 -138 260 C-138.15376464 275.23757834 -138.30180153 290.4752048 -138.4429636 305.71290493 C-138.50863767 312.78755536 -138.57620719 319.86217833 -138.64819336 326.93676758 C-138.71759373 333.75774977 -138.78177225 340.57876485 -138.84269524 347.39982796 C-138.86686382 350.0086847 -138.89281424 352.61752554 -138.92053413 355.22634697 C-138.95891261 358.86628605 -138.99108701 362.506229 -139.02172852 366.14624023 C-139.03467453 367.23668137 -139.04762054 368.3271225 -139.06095886 369.4506073 C-139.06799835 370.43643799 -139.07503784 371.42226868 -139.08229065 372.43797302 C-139.09058679 373.29984946 -139.09888292 374.1617259 -139.10743046 375.04971981 C-139.21722725 377.00515431 -139.21722725 377.00515431 -138 378 C-136.34261557 378.09346915 -134.68125356 378.11744977 -133.02124023 378.11352539 C-131.42970375 378.11341209 -131.42970375 378.11341209 -129.80601501 378.11329651 C-128.651866 378.10813522 -127.49771698 378.10297394 -126.30859375 378.09765625 C-125.13361832 378.0962413 -123.95864288 378.09482635 -122.74806213 378.09336853 C-118.97784936 378.08774992 -115.20769496 378.07519426 -111.4375 378.0625 C-108.88867273 378.0574874 -106.33984453 378.05292408 -103.79101562 378.04882812 C-97.52732367 378.03777444 -91.26366601 378.02101821 -85 378 C-84.74387939 376.84822266 -84.48775879 375.69644531 -84.22387695 374.50976562 C-83.87484204 372.97518525 -83.52545824 371.4406842 -83.17578125 369.90625 C-82.92495789 368.77171387 -82.92495789 368.77171387 -82.66906738 367.61425781 C-80.37594752 357.63339299 -75.92179245 349.54393653 -69.3203125 341.7421875 C-67.79866823 340.09866485 -67.79866823 340.09866485 -68 338 C-67.40703125 337.73445312 -66.8140625 337.46890625 -66.203125 337.1953125 C-63.94277953 335.96895485 -62.5557971 334.68923541 -60.75 332.875 C-47.99857868 321.48214132 -30.72026837 317.01738074 -14 317 C5.299456 318.24878833 21.39134514 326.08587291 34.65234375 340.1015625 C43.93607101 351.56333558 47.18094568 363.48759359 51 378 C68.49 378 85.98 378 104 378 C104 339.06 104 300.12 104 260 C84.695 259.505 84.695 259.505 65 259 C63.68 258.67 62.36 258.34 61 258 C59.71428571 249.42857143 59.71428571 249.42857143 61 246 C63.9774696 245.1477347 66.67571776 244.85287628 69.76855469 244.79467773 C71.17956451 244.7647599 71.17956451 244.7647599 72.61907959 244.73423767 C73.62650208 244.71752518 74.63392456 244.70081268 75.671875 244.68359375 C76.70942932 244.66281265 77.74698364 244.64203156 78.815979 244.62062073 C82.12725258 244.55528592 85.43860482 244.49631483 88.75 244.4375 C90.99610185 244.39429951 93.24219578 244.35068473 95.48828125 244.30664062 C100.99210457 244.19962097 106.49600598 244.09782478 112 244 C112.11618135 233.22058378 112.20486081 222.4413181 112.25906086 211.66140175 C112.28508281 206.65506394 112.3203448 201.64915655 112.37719727 196.64306641 C112.43178212 191.80602196 112.46147613 186.96938983 112.47438622 182.132061 C112.48357878 180.29256074 112.50152939 178.45308139 112.52865028 176.61375809 C112.95691535 162.49026074 112.95691535 162.49026074 107 150 C99.83712865 143.10231442 92.58121431 141.69497193 82.94265747 141.73930359 C81.60788953 141.73356527 81.60788953 141.73356527 80.24615657 141.72771102 C77.27618553 141.7174248 74.3064094 141.72136485 71.33642578 141.7253418 C69.20223818 141.7209929 67.06805214 141.71580915 64.93386841 141.70985413 C59.14458945 141.6964719 53.3553758 141.69588462 47.56608438 141.69841743 C42.73012736 141.69948769 37.89418352 141.69460234 33.05822933 141.689812 C21.64769622 141.67871944 10.23719604 141.67827797 -1.17333984 141.68432617 C-12.9379726 141.69036625 -24.70248576 141.67805343 -36.46709812 141.6567561 C-46.57431038 141.63913308 -56.68148461 141.63313987 -66.78871167 141.63639385 C-72.82239924 141.63820576 -78.8560015 141.63557958 -84.88967514 141.62167931 C-90.56470307 141.60909431 -96.23954475 141.61105158 -101.91456985 141.62409019 C-103.99422011 141.62645406 -106.07388349 141.62372811 -108.15351868 141.61546707 C-110.99879082 141.60498195 -113.84344004 141.61311457 -116.68869019 141.6257782 C-117.91454466 141.61471677 -117.91454466 141.61471677 -119.16516387 141.60343188 C-127.89533387 141.68482353 -136.32467901 143.97143945 -142 151 Z M-203 165 C-205.07538624 168.11307936 -205.24772151 168.76348195 -205.22705078 172.2878418 C-205.22689972 173.14850754 -205.22674866 174.00917328 -205.22659302 174.8959198 C-205.21627045 175.82100845 -205.20594788 176.74609711 -205.1953125 177.69921875 C-205.1924826 178.64940384 -205.18965271 179.59958893 -205.18673706 180.5785675 C-205.17553715 183.61500615 -205.15043288 186.65115042 -205.125 189.6875 C-205.11496996 191.74543845 -205.10584415 193.80338152 -205.09765625 195.86132812 C-205.07559842 200.9076656 -205.04106982 205.95378288 -205 211 C-200.05 211 -195.1 211 -190 211 C-190 195.82 -190 180.64 -190 165 C-194.9160178 162.5419911 -198.27233025 161.9025612 -203 165 Z M156 165 C156 180.18 156 195.36 156 211 C160.95 211 165.9 211 171 211 C171.14849192 204.96780145 171.25728505 198.93666987 171.32958984 192.90307617 C171.35973452 190.85145534 171.40065836 188.7999631 171.45263672 186.7487793 C171.52555446 183.79704059 171.55947901 180.84700726 171.5859375 177.89453125 C171.61690521 176.97976517 171.64787292 176.06499908 171.67977905 175.12251282 C171.74796859 170.39973889 171.74796859 170.39973889 169.71661377 166.29159546 C167.37038199 164.25025576 165.45455254 163.07575876 162.375 162.5625 C159.62697824 162.95503002 159.62697824 162.95503002 156 165 Z M-222 227 C-222 232.61 -222 238.22 -222 244 C-202.2 244 -182.4 244 -162 244 C-162 238.39 -162 232.78 -162 227 C-181.8 227 -201.6 227 -222 227 Z M128 227 C128 232.61 128 238.22 128 244 C147.8 244 167.6 244 188 244 C188 238.39 188 232.78 188 227 C168.2 227 148.4 227 128 227 Z M-203 260 C-203 268.58 -203 277.16 -203 286 C-186.83 286 -170.66 286 -154 286 C-154 277.42 -154 268.84 -154 260 C-170.17 260 -186.34 260 -203 260 Z M120 260 C120 268.58 120 277.16 120 286 C136.17 286 152.34 286 169 286 C169 277.42 169 268.84 169 260 C152.83 260 136.66 260 120 260 Z M-203 302 C-203 313.55 -203 325.1 -203 337 C-186.83 337 -170.66 337 -154 337 C-154 325.45 -154 313.9 -154 302 C-170.17 302 -186.34 302 -203 302 Z M120 302 C120 313.55 120 325.1 120 337 C136.17 337 152.34 337 169 337 C169 325.45 169 313.9 169 302 C152.83 302 136.66 302 120 302 Z M-55.125 347.375 C-62.88632853 355.47964164 -69 366.59805997 -69 378 C-64.38 378 -59.76 378 -55 378 C-54.96261719 376.73542969 -54.92523438 375.47085938 -54.88671875 374.16796875 C-54.82106167 372.5077827 -54.75461424 370.84762778 -54.6875 369.1875 C-54.66494141 368.35412109 -54.64238281 367.52074219 -54.61914062 366.66210938 C-54.58369141 365.85966797 -54.54824219 365.05722656 -54.51171875 364.23046875 C-54.47244263 363.12288208 -54.47244263 363.12288208 -54.43237305 361.99291992 C-53.8817847 359.4551149 -53.0675955 358.54328991 -51 357 C-44.87867226 356.34414346 -44.87867226 356.34414346 -42.31323242 358.2590332 C-40.70885795 360.38597025 -40.58202308 361.58694906 -40.48828125 364.23046875 C-40.43510742 365.43413086 -40.43510742 365.43413086 -40.38085938 366.66210938 C-40.35830078 367.49548828 -40.33574219 368.32886719 -40.3125 369.1875 C-40.27833984 370.03248047 -40.24417969 370.87746094 -40.20898438 371.74804688 C-40.12658529 373.83156649 -40.06161355 375.91576216 -40 378 C-35.05 378 -30.1 378 -25 378 C-25 363.15 -25 348.3 -25 333 C-36.24992826 333 -47.04796015 340.0255103 -55.125 347.375 Z M-9 333 C-9 347.85 -9 362.7 -9 378 C-4.05 378 0.9 378 6 378 C6.03738281 376.73542969 6.07476562 375.47085938 6.11328125 374.16796875 C6.17893833 372.5077827 6.24538576 370.84762778 6.3125 369.1875 C6.33505859 368.35412109 6.35761719 367.52074219 6.38085938 366.66210938 C6.41630859 365.85966797 6.45175781 365.05722656 6.48828125 364.23046875 C6.52755737 363.12288208 6.52755737 363.12288208 6.56762695 361.99291992 C7.11819911 359.45518955 7.92740206 358.5374243 10 357 C13.72986522 356.73358106 16.44646071 356.8154869 20 358 C20.33 364.6 20.66 371.2 21 378 C25.62 378 30.24 378 35 378 C34.79198217 365.93496585 28.46738838 355.58412613 20.24609375 347.11328125 C11.56090284 338.94164945 2.93104 334.49138 -9 333 Z M-203 353 C-203 378.74 -203 404.48 -203 431 C-198.05 431.99 -193.1 432.98 -188 434 C-178.36596039 437.87576306 -171.60188492 442.98486128 -167.1875 452.5625 C-166.1158736 455.09703744 -165.12556399 457.59405732 -164.3125 460.22265625 C-163.6830131 462.36503713 -163.6830131 462.36503713 -162 465 C-160.05942604 465.56495051 -160.05942604 465.56495051 -157.89453125 465.6796875 C-156.60933594 465.78539062 -155.32414062 465.89109375 -154 466 C-153.9906543 465.41508789 -153.98130859 464.83017578 -153.97167969 464.22753906 C-153.91786721 461.5675142 -153.83424551 458.90922778 -153.75 456.25 C-153.73582031 455.32960938 -153.72164062 454.40921875 -153.70703125 453.4609375 C-153.46100957 446.67073925 -153.46100957 446.67073925 -151.1796875 443.3515625 C-149 442 -149 442 -145.375 442.125 C-142 443 -142 443 -140 445 C-138.89057793 448.17443331 -138.90967163 451.12496439 -138.97265625 454.46484375 C-138.98490234 455.51220703 -138.99714844 456.55957031 -139.00976562 457.63867188 C-139.0448605 459.83405139 -139.08390924 462.02937133 -139.12695312 464.22460938 C-139.14338867 465.79758789 -139.14338867 465.79758789 -139.16015625 467.40234375 C-139.18541382 468.83308228 -139.18541382 468.83308228 -139.21118164 470.29272461 C-138.83439406 475.12301077 -136.78410394 478.51901604 -134 482.375 C-131.35527199 486.22598201 -129.96856584 489.44774055 -129 494 C-125.7 494 -122.4 494 -119 494 C-119 461 -119 428 -119 394 C-125.27 394 -131.54 394 -138 394 C-138.07347656 396.07861328 -138.07347656 396.07861328 -138.1484375 398.19921875 C-138.22349171 400.02866504 -138.29903839 401.85809117 -138.375 403.6875 C-138.4059375 404.59951172 -138.436875 405.51152344 -138.46875 406.45117188 C-138.85491672 415.30082576 -138.85491672 415.30082576 -141 419 C-144 421 -144 421 -147.5625 420.8125 C-151 420 -151 420 -153 417 C-153.2784729 414.20954895 -153.2784729 414.20954895 -153.31884766 410.78442383 C-153.33871735 409.5033223 -153.35858704 408.22222076 -153.37905884 406.90229797 C-153.39093527 405.50387749 -153.40259812 404.10545517 -153.4140625 402.70703125 C-153.43277261 401.27641174 -153.45234591 399.84580329 -153.4727478 398.41520691 C-153.52409183 394.65221673 -153.56370521 390.88919077 -153.60089111 387.1260376 C-153.64795548 382.60964611 -153.70956297 378.09343251 -153.76873779 373.57718658 C-153.85697781 366.7181961 -153.92672164 359.85924018 -154 353 C-170.17 353 -186.34 353 -203 353 Z M-103 394 C-103 427 -103 460 -103 494 C-97.39 494 -91.78 494 -86 494 C-86 461 -86 428 -86 394 C-91.61 394 -97.22 394 -103 394 Z M-70 394 C-70 427 -70 460 -70 494 C-65.05 494 -60.1 494 -55 494 C-55 461 -55 428 -55 394 C-59.95 394 -64.9 394 -70 394 Z M-40 394 C-40 427 -40 460 -40 494 C-35.05 494 -30.1 494 -25 494 C-25 461 -25 428 -25 394 C-29.95 394 -34.9 394 -40 394 Z M-9 394 C-9 427 -9 460 -9 494 C-4.05 494 0.9 494 6 494 C6 461 6 428 6 394 C1.05 394 -3.9 394 -9 394 Z M21 394 C21 427 21 460 21 494 C25.95 494 30.9 494 36 494 C36 461 36 428 36 394 C31.05 394 26.1 394 21 394 Z M52 394 C52 427 52 460 52 494 C57.61 494 63.22 494 69 494 C69 461 69 428 69 394 C63.39 394 57.78 394 52 394 Z M85 394 C85 427 85 460 85 494 C88.3 494 91.6 494 95 494 C95.23074219 493.27554688 95.46148437 492.55109375 95.69921875 491.8046875 C98.69136754 482.93468121 98.69136754 482.93468121 101.6875 479.625 C105.69142235 475.08000707 105.1274848 470.08350598 105.02172852 464.2722168 C105.01212097 463.51070816 105.00251343 462.74919952 104.99261475 461.96461487 C104.95975787 459.4593848 104.91937535 456.95433644 104.87890625 454.44921875 C104.8545921 452.70759208 104.8307492 450.96595877 104.80735779 449.22431946 C104.74464565 444.64908261 104.67554278 440.07396385 104.60510254 435.49884033 C104.53430261 430.82675537 104.4695555 426.15458694 104.40429688 421.48242188 C104.27545047 412.32152028 104.13929215 403.16074872 104 394 C97.73 394 91.46 394 85 394 Z M-218 456 C-221.39763796 460.75669314 -221.45314923 465.52046352 -221.69140625 471.1953125 C-221.99797687 473.98161261 -222.48596539 475.6615978 -224 478 C-226.80863528 479.40431764 -229.50316753 479.37665373 -232.625 479.6875 C-240.08848658 480.71984702 -244.63103404 482.83210782 -249.3671875 488.69140625 C-251.25520151 491.12521771 -251.25520151 491.12521771 -252 494 C-216.69 494 -181.38 494 -145 494 C-147.61443009 487.46392477 -151.52545345 483.81624024 -157.75 480.5625 C-161.94037842 479.8372422 -165.9560247 480.00152292 -170.1953125 480.22265625 C-173.47584002 479.9622244 -174.74059582 479.3702628 -177 477 C-177.5390625 475.0546875 -177.5390625 475.0546875 -177.625 472.875 C-177.68816406 472.07835937 -177.75132812 471.28171875 -177.81640625 470.4609375 C-177.87699219 469.64882813 -177.93757813 468.83671875 -178 468 C-178.74782138 460.08669014 -181.94978847 455.1629897 -188 450 C-198.62319568 443.53994857 -209.88380848 447.48430682 -218 456 Z M145.4765625 455.046875 C141.17866968 460.73191841 140.77319036 466.08230597 141 473 C140.69931388 474.67286483 140.37234924 476.34161376 140 478 C138.84242188 478.17015625 137.68484375 478.3403125 136.4921875 478.515625 C134.95300202 478.75964221 133.41394606 479.00447736 131.875 479.25 C131.11445313 479.35957031 130.35390625 479.46914063 129.5703125 479.58203125 C122.81631193 480.68828996 118.06525646 483.29199357 113.625 488.625 C113.12226563 489.21539062 112.61953125 489.80578125 112.1015625 490.4140625 C110.80984279 491.95194442 110.80984279 491.95194442 111 494 C146.31 494 181.62 494 218 494 C214.7037427 487.4074854 211.80607301 483.94729317 205.3125 480.625 C202.01439325 480.00271571 199.2797241 480.0608387 195.9375 480.1875 C191.9879616 480.2218012 190.33550461 480.18419861 186.8125 478.25 C184.49667675 474.09748934 184.50957223 470.6936249 184.28515625 466.00390625 C183.70449047 459.88702973 181.08962594 455.73403627 176.625 451.625 C166.43657487 443.66461688 153.87750071 445.91708827 145.4765625 455.046875 Z " fill="#FFFFFF" transform="translate(273,3)"></path><path d="M0 0 C5.46614675 4.4847545 8.6589953 11.54748286 9.81298828 18.41088867 C10.01564555 21.85581334 10.0212051 25.23807135 9.9375 28.6875 C9.95232422 29.83734375 9.96714844 30.9871875 9.98242188 32.171875 C9.89664208 41.03242371 7.92557216 47.64331498 2.22265625 54.5 C1.59230469 55.015625 0.96195312 55.53125 0.3125 56.0625 C-0.31527344 56.59875 -0.94304687 57.135 -1.58984375 57.6875 C-7.60717872 61.51770237 -13.71807774 61.42825379 -20.625 61.4375 C-21.58019531 61.46199219 -22.53539062 61.48648438 -23.51953125 61.51171875 C-31.02368389 61.54260004 -35.9656362 59.87565539 -41.95703125 55.421875 C-42.48683594 54.89078125 -43.01664062 54.3596875 -43.5625 53.8125 C-44.10519531 53.29171875 -44.64789063 52.7709375 -45.20703125 52.234375 C-50.41273666 44.90685043 -50.23960568 37.29822719 -50.1875 28.625 C-50.20748047 27.44873047 -50.22746094 26.27246094 -50.24804688 25.06054688 C-50.24321008 16.40751346 -48.47170526 10.66846275 -44.125 3.3125 C-32.55567813 -7.64791019 -13.33318561 -7.8019514 0 0 Z M-31.75 13.0625 C-34.92390613 17.82335919 -34.11872065 22.90195725 -34.125 28.5 C-34.14949219 29.64533203 -34.17398437 30.79066406 -34.19921875 31.97070312 C-34.20308594 33.07220703 -34.20695312 34.17371094 -34.2109375 35.30859375 C-34.21915527 36.31591553 -34.22737305 37.3232373 -34.23583984 38.36108398 C-33.62372044 41.76465244 -32.40405452 42.92140358 -29.75 45.0625 C-26.66639481 46.25432287 -23.59746336 46.22721939 -20.3125 46.25 C-19.38566406 46.26417969 -18.45882813 46.27835938 -17.50390625 46.29296875 C-13.83069656 45.98556539 -11.0826784 45.06843909 -8.13085938 42.84033203 C-5.17504632 39.03477499 -6.28403456 33.23898906 -6.3125 28.625 C-6.29251953 27.47966797 -6.27253906 26.33433594 -6.25195312 25.15429688 C-6.25291992 23.50204102 -6.25291992 23.50204102 -6.25390625 21.81640625 C-6.25205322 20.80908447 -6.2502002 19.8017627 -6.24829102 18.76391602 C-6.8830296 15.34621166 -8.05383054 14.19153679 -10.75 12.0625 C-14.22386432 10.90454523 -17.02769304 10.89420151 -20.6875 10.875 C-22.52634766 10.85373047 -22.52634766 10.85373047 -24.40234375 10.83203125 C-27.55194965 11.04886526 -29.19690703 11.27948148 -31.75 13.0625 Z " fill="#FFFFFF" transform="translate(341.75,167.9375)"></path><path d="M0 0 C8.75579122 9.24222406 8.37157742 20.43014787 8.21875 32.375 C7.96943711 40.1161652 6.1418052 47.04633082 1 53 C-9.59564993 61.17268824 -19.97828141 61.088048 -33 60 C-40.08438014 58.34590213 -44.22908332 54.29357614 -48.625 48.671875 C-52.04253243 42.03098812 -52.32183565 34.8392085 -52.25 27.5 C-52.25773438 26.70980469 -52.26546875 25.91960937 -52.2734375 25.10546875 C-52.24172995 15.41881079 -50.6328041 8.24026388 -44 1 C-32.60394117 -9.56220087 -12.35328228 -8.47774274 0 0 Z M-34 13 C-36.82726265 17.57253226 -36.33027932 22.22104705 -36.3125 27.4375 C-36.32861328 28.37916016 -36.34472656 29.32082031 -36.36132812 30.29101562 C-36.43055791 37.198107 -36.43055791 37.198107 -33 43 C-27.72592542 45.94387637 -21.86325979 45.51571297 -16 45 C-11.6939075 43.52944146 -11.6939075 43.52944146 -8.87036133 40.19116211 C-7.26040677 36.13805071 -7.67282067 31.86941473 -7.6875 27.5625 C-7.67138672 26.62083984 -7.65527344 25.67917969 -7.63867188 24.70898438 C-7.59606685 17.8244748 -7.59606685 17.8244748 -11 12 C-14.38625662 9.50367274 -17.83170895 9.70064554 -21.9375 9.6875 C-23.14277344 9.67074219 -24.34804687 9.65398437 -25.58984375 9.63671875 C-29.28156781 10.0299952 -31.10711078 10.70742411 -34 13 Z " fill="#FFFFFF" transform="translate(278,169)"></path><path d="M0 0 C0.90458954 -0.01283524 1.80917908 -0.02567047 2.74118042 -0.03889465 C3.71620514 -0.04628159 4.69122986 -0.05366852 5.69580078 -0.0612793 C6.70071564 -0.06935104 7.70563049 -0.07742279 8.74099731 -0.08573914 C10.86767861 -0.09957045 12.99438202 -0.11029687 15.12109375 -0.11816406 C18.37168361 -0.13539505 21.62126112 -0.17929231 24.87158203 -0.22338867 C26.93798081 -0.23351425 29.00438822 -0.24203077 31.07080078 -0.2487793 C32.52726517 -0.27504143 32.52726517 -0.27504143 34.01315308 -0.30183411 C38.31844758 -0.28800656 40.82894997 -0.23140025 44.59082031 2.00439453 C46.51611328 4.17700195 46.51611328 4.17700195 47.76611328 7.36450195 C47.38802911 13.13028559 44.29892248 16.00357658 40.51611328 20.17700195 C39.44876953 21.3700293 39.44876953 21.3700293 38.35986328 22.5871582 C36.85938328 24.25406468 35.35268492 25.91539125 33.84033203 27.5715332 C30.75346543 31.0319366 27.84671207 34.6235637 24.94970703 38.2434082 C21.57399152 42.31268966 18.04558266 46.24101381 14.51611328 50.17700195 C15.37366211 50.18634766 16.23121094 50.19569336 17.11474609 50.20532227 C20.30584008 50.24941487 23.49598084 50.31106252 26.68652344 50.38452148 C28.06562979 50.41269295 29.44489646 50.43392667 30.82421875 50.44799805 C32.81034277 50.4694774 34.79611237 50.51823327 36.78173828 50.56762695 C37.97573242 50.58857422 39.16972656 50.60952148 40.39990234 50.63110352 C44.09880643 51.27907825 45.30617245 52.18440167 47.51611328 55.17700195 C48.01611328 58.67700195 48.01611328 58.67700195 47.51611328 62.17700195 C45.52383441 64.71688087 44.31661028 66.00464123 41.12585449 66.69166565 C40.24079224 66.69786423 39.35572998 66.70406281 38.44384766 66.71044922 C37.4360022 66.72628555 36.42815674 66.74212189 35.38977051 66.75843811 C33.76621643 66.75099831 33.76621643 66.75099831 32.10986328 66.7434082 C30.99301147 66.74960678 29.87615967 66.75580536 28.72546387 66.76219177 C26.36516186 66.7692928 24.0048098 66.76611109 21.64453125 66.75341797 C18.02917542 66.73955205 14.41640671 66.77362284 10.80126953 66.81176758 C8.50830015 66.81271874 6.21532752 66.8108601 3.92236328 66.8059082 C2.2988092 66.82579552 2.2988092 66.82579552 0.64245605 66.84608459 C-6.81357938 66.7533647 -6.81357938 66.7533647 -10.19091797 63.84936523 C-12.01842703 60.0721911 -11.69504617 58.17815371 -10.48388672 54.17700195 C-8.89825288 51.66282439 -7.00174956 49.53973658 -4.98388672 47.36450195 C-4.44143311 46.75630615 -3.89897949 46.14811035 -3.34008789 45.52148438 C-1.73492488 43.72711694 -0.11205904 41.95048262 1.51611328 40.17700195 C3.0795112 38.44864709 4.64212172 36.71957933 6.20361328 34.98950195 C7.26322266 33.82354492 7.26322266 33.82354492 8.34423828 32.6340332 C11.56552076 28.98981255 14.61799597 25.21452327 17.66845703 21.42700195 C19.51611328 19.17700195 19.51611328 19.17700195 21.51611328 17.17700195 C20.69409424 17.17289307 19.8720752 17.16878418 19.02514648 17.16455078 C15.29224287 17.13160952 11.56096995 17.06096092 7.82861328 16.98950195 C6.53503906 16.98370117 5.24146484 16.97790039 3.90869141 16.97192383 C2.66152344 16.94291992 1.41435547 16.91391602 0.12939453 16.8840332 C-1.01746826 16.86832275 -2.16433105 16.8526123 -3.34594727 16.83642578 C-7.41908749 15.98047373 -8.95604079 14.42649805 -11.48388672 11.17700195 C-11.48388672 7.54939026 -11.27584454 5.25694444 -9.10888672 2.30200195 C-6.15423762 0.25647566 -3.47741216 0.04303564 0 0 Z " fill="#FFFFFF" transform="translate(172.48388671875,162.822998046875)"></path><path d="M0 0 C3.1359157 1.77984405 3.84102736 2.52308207 5 6 C5.34578461 11.35966151 5.45162946 14.61908568 2 19 C-0.88861709 20.44430855 -2.79647701 20.37688506 -6 20 C-8.875 18.125 -8.875 18.125 -11 15 C-11.70630612 11.52542958 -11.70630612 8.47457042 -11 5 C-7.9135694 0.46113147 -5.45394022 -0.92833025 0 0 Z " fill="#FFFFFF" transform="translate(274,100)"></path><path d="M0 0 C2.875 1.875 2.875 1.875 5 5 C5.70630612 8.47457042 5.70630612 11.52542958 5 15 C2.875 18.125 2.875 18.125 0 20 C-3.50412619 20.57210224 -5.22404484 20.44040698 -8.3125 18.6875 C-10.98453131 16.01546869 -11.00905829 13.85959652 -11.25 10.125 C-11.20811605 6.33450271 -10.38928247 4.03255083 -8 1 C-5.11138291 -0.44430855 -3.20352299 -0.37688506 0 0 Z " fill="#FFFFFF" transform="translate(244,100)"></path></svg>