<svg xmlns="http://www.w3.org/2000/svg" width="512" height="512"><path d="M0 0 C5.28 0 10.56 0 16 0 C16 15.18 16 30.36 16 46 C19.96 45.01 23.92 44.02 28 43 C29.32 43 30.64 43 32 43 C32 34.09 32 25.18 32 16 C37.28 16 42.56 16 48 16 C48 23.59 48 31.18 48 39 C52.82044922 38.02546875 52.82044922 38.02546875 57.73828125 37.03125 C60.84580807 36.40506746 63.95353312 35.779878 67.0612793 35.15478516 C69.22359828 34.71930122 71.38570917 34.28278266 73.54760742 33.84521484 C76.65229227 33.21701295 79.75770268 32.59251663 82.86328125 31.96875 C83.83211746 31.77188599 84.80095367 31.57502197 85.79914856 31.37219238 C86.6998558 31.19200562 87.60056305 31.01181885 88.52856445 30.82617188 C89.32132278 30.66628784 90.11408112 30.50640381 90.93086243 30.3416748 C93 30 93 30 96 30 C96 88.74 96 147.48 96 208 C101.28 208 106.56 208 112 208 C112 192.16 112 176.32 112 160 C117.28 160 122.56 160 128 160 C128 149.44 128 138.88 128 128 C133.28 128 138.56 128 144 128 C144 138.56 144 149.12 144 160 C149.28 160 154.56 160 160 160 C160 175.84 160 191.68 160 208 C165.28 208 170.56 208 176 208 C176 218.56 176 229.12 176 240 C181.28 240 186.56 240 192 240 C192 319.2 192 398.4 192 480 C197.28 480 202.56 480 208 480 C208 485.28 208 490.56 208 496 C44.32 496 -119.36 496 -288 496 C-288 490.72 -288 485.44 -288 480 C-277.44 480 -266.88 480 -256 480 C-256 469.11 -256 458.22 -256 447 C-257.98 446.67 -259.96 446.34 -262 446 C-274.02160683 440.03050795 -281.07095594 430.14942752 -286 418 C-290.44977535 403.58272788 -289.30533176 387.83642232 -282.71484375 374.375 C-276.93421496 363.81206828 -268.65100123 356.1365754 -257.125 352.390625 C-247.84259787 350.68430108 -237.99481653 351.25602536 -229.8984375 356.3125 C-228.22506975 357.48585746 -226.60585434 358.73581679 -225 360 C-225 357.36 -225 354.72 -225 352 C-225.75023437 351.78085937 -226.50046875 351.56171875 -227.2734375 351.3359375 C-244.02108644 346.14711931 -256.56419349 336.29347013 -265.04541016 320.91748047 C-272.8695494 305.20116598 -274.96247288 285.29186021 -270.375 268.3125 C-264.39018642 250.92305914 -254.34092923 236.75786548 -237.765625 228.2890625 C-227.3842464 223.45028434 -220.48111955 224 -208 224 C-208 192.32 -208 160.64 -208 128 C-213.28 128 -218.56 128 -224 128 C-224 122.72 -224 117.44 -224 112 C-176.48 112 -128.96 112 -80 112 C-80 96.49 -80 80.98 -80 65 C-73.6578125 63.63875 -73.6578125 63.63875 -67.1875 62.25 C-65.8986792 61.97317383 -64.6098584 61.69634766 -63.28198242 61.41113281 C-53.19330574 59.24762158 -43.09698006 57.12568001 -33 55 C-32.67 42.13 -32.34 29.26 -32 16 C-26.72 16 -21.44 16 -16 16 C-16 27.88 -16 39.76 -16 52 C-10.72 51.01 -5.44 50.02 0 49 C0 32.83 0 16.66 0 0 Z M72.45800781 51.05625916 C71.28016724 51.29041031 70.10232666 51.52456146 68.88879395 51.76580811 C67.57689627 52.02864644 66.2650069 52.29152626 64.953125 52.55444336 C63.57681356 52.8288366 62.20047 53.10306881 60.82409668 53.37715149 C57.080028 54.12328107 53.33645828 54.87188611 49.59300232 55.62108302 C46.47166928 56.24556313 43.35010841 56.86890021 40.22854996 57.49225241 C32.866853 58.96237067 25.50556889 60.43454332 18.14453125 61.90795898 C10.54136615 63.42980065 2.93750158 64.94810935 -4.66671371 66.46469396 C-11.18774174 67.76538149 -17.70832299 69.06829153 -24.22854996 70.37298876 C-28.1261904 71.15288023 -32.02399897 71.93190573 -35.92224121 72.7087841 C-39.58673378 73.43917618 -43.25066233 74.17233276 -46.91416931 74.9076519 C-48.26122696 75.17753849 -49.60848355 75.4464342 -50.95594788 75.71428299 C-52.79049861 76.07911558 -54.62427673 76.44782693 -56.45800781 76.8167572 C-57.48597473 77.02231704 -58.51394165 77.22787687 -59.57305908 77.43966579 C-61.99182077 77.89818642 -61.99182077 77.89818642 -64 79 C-64 190.87 -64 302.74 -64 418 C-62.02 417.67 -60.04 417.34 -58 417 C-40.86113481 415.54957649 -25.90349583 418.15173096 -12 429 C-9.19233147 431.54836156 -6.54618322 434.19117324 -4 437 C-2.83984375 436.58427734 -2.83984375 436.58427734 -1.65625 436.16015625 C-0.6146875 435.79792969 0.426875 435.43570312 1.5 435.0625 C2.5209375 434.70285156 3.541875 434.34320313 4.59375 433.97265625 C8 433 8 433 16 432 C16 368.64 16 305.28 16 240 C21.28 240 26.56 240 32 240 C32 229.44 32 218.88 32 208 C47.84 208 63.68 208 80 208 C80 155.86 80 103.72 80 50 C77.38715395 50 75.02332795 50.54421973 72.45800781 51.05625916 Z M-192 128 C-192.2475 144.644375 -192.495 161.28875 -192.75 178.4375 C-192.85924805 183.68068115 -192.96849609 188.9238623 -193.08105469 194.32592773 C-193.12120336 199.05190142 -193.12120336 199.05190142 -193.14532471 203.77796936 C-193.16367757 205.8728855 -193.20573407 207.9676796 -193.26690674 210.06178284 C-194.10444389 221.34405054 -194.10444389 221.34405054 -190.82432556 231.77748489 C-188.41066655 234.25129627 -186.00165663 235.72431212 -182.94390869 237.36439514 C-179.70298969 239.16501582 -178.32603503 240.87057376 -176.3125 243.9375 C-173.22795615 247.66734591 -170.73507989 248.55659507 -165.93798828 249.12573242 C-163.70452602 249.31108701 -161.47079626 249.46073013 -159.234375 249.60546875 C-153.70487416 249.99670702 -149.08608404 251.85095041 -144 254 C-144 249.38 -144 244.76 -144 240 C-138.72 240 -133.44 240 -128 240 C-128 245.28 -128 250.56 -128 256 C-131.96 256 -135.92 256 -140 256 C-137.39388727 258.60611273 -135.07978403 260.75488209 -132.25 263 C-120.45613263 273.32237926 -114.12737668 289.11853928 -112.77880859 304.52734375 C-111.873606 324.3724662 -115.85785832 342.45321135 -128.875 358 C-137.26710253 366.68598939 -148.01707043 372.948278 -160 375 C-159.96221436 375.5576001 -159.92442871 376.1152002 -159.88549805 376.68969727 C-158.94629794 394.72345083 -158.94629794 394.72345083 -165.11083984 402.13085938 C-167.41772306 404.58006107 -169.78462198 406.94808959 -172.22460938 409.26464844 C-175.04554593 412.02196651 -177.53609022 415.03761708 -180.0625 418.0625 C-181.04926645 419.2187424 -182.03754725 420.37369415 -183.02734375 421.52734375 C-183.5157373 422.0982373 -184.00413086 422.66913086 -184.50732422 423.25732422 C-186.53448332 425.62400097 -188.56609239 427.98680247 -190.60229492 430.34570312 C-191.61600213 431.53023064 -192.62016402 432.72299516 -193.61450195 433.92382812 C-195.95330393 436.73333971 -198.17444862 439.14812107 -200.9765625 441.52734375 C-206.81449426 446.86370673 -208.21760553 450.36959884 -208.6171875 458.19921875 C-208.78200844 465.50809005 -208.33360484 472.66069351 -208 480 C-197.44 480 -186.88 480 -176 480 C-175.9175 477.40125 -175.835 474.8025 -175.75 472.125 C-175.15151066 459.81907532 -171.18488605 450.51282121 -162 442 C-152.7528671 434.17550293 -143.20159562 431.94203417 -131.34375 432.52734375 C-120.11961348 433.50091559 -112.71044727 439.17640151 -105 447 C-103.95411765 448.23748143 -103.95411765 448.23748143 -101.67578125 448.40625 C-98.78597998 448.26985301 -98.78597998 448.26985301 -97.04296875 445.65625 C-96.12451172 444.09390625 -96.12451172 444.09390625 -95.1875 442.5 C-91.04406091 435.86108054 -86.54293451 430.36195634 -80 426 C-79.54926313 423.75583823 -79.54926313 423.75583823 -79.63085651 421.0999279 C-79.62488337 420.05789392 -79.61891022 419.01585994 -79.61275607 417.94224918 C-79.6214946 416.78857227 -79.63023312 415.63489536 -79.63923645 414.44625854 C-79.63667318 413.22765109 -79.6341099 412.00904364 -79.63146895 410.75350869 C-79.62736844 407.36016633 -79.63679453 403.96733821 -79.65180314 400.57405782 C-79.66471907 396.9189803 -79.6603772 393.26391959 -79.65809631 389.60882568 C-79.65652075 383.27256352 -79.66595938 376.93639379 -79.68280983 370.60015488 C-79.70715711 361.43895276 -79.71500071 352.27779549 -79.7187738 343.11656453 C-79.72534501 328.25427937 -79.7453243 313.39204353 -79.77368164 298.52978516 C-79.80120491 284.08968351 -79.82244696 269.64959523 -79.83520508 255.20947266 C-79.83599325 254.31987342 -79.83678142 253.43027419 -79.83759347 252.5137174 C-79.84150849 248.05100552 -79.84529964 243.58829354 -79.84902918 239.1255815 C-79.88014594 202.08367722 -79.93546022 165.04186409 -80 128 C-116.96 128 -153.92 128 -192 128 Z M128 176 C128 186.56 128 197.12 128 208 C133.28 208 138.56 208 144 208 C144 197.44 144 186.88 144 176 C138.72 176 133.44 176 128 176 Z M48 224 C48 229.28 48 234.56 48 240 C84.96 240 121.92 240 160 240 C160 234.72 160 229.44 160 224 C123.04 224 86.08 224 48 224 Z M-244.18359375 253.91015625 C-251.21490718 261.99994697 -255.19270316 272.30331685 -256 283 C-256.0515625 283.62519531 -256.103125 284.25039063 -256.15625 284.89453125 C-256.77696214 298.83469141 -252.65392896 311.92857277 -243.5 322.375 C-238.90601998 327.3410277 -234.27051987 331.33169367 -228 334 C-226.68 334 -225.36 334 -224 334 C-224 316.18 -224 298.36 -224 280 C-218.72 280 -213.44 280 -208 280 C-208 297.82 -208 315.64 -208 334 C-199.03172733 332.50528789 -191.51616894 327.30416853 -186 320 C-177.31596929 305.00191845 -173.78779711 290.09904143 -178 273 C-181.94912039 260.82601986 -188.99983537 249.98095235 -200.44921875 243.64453125 C-216.88539164 236.49724728 -232.17803062 241.29374255 -244.18359375 253.91015625 Z M32 256 C32 315.07 32 374.14 32 435 C33.32 435.66 34.64 436.32 36 437 C36.53109375 436.45730469 37.0621875 435.91460937 37.609375 435.35546875 C38.31578125 434.64003906 39.0221875 433.92460937 39.75 433.1875 C40.79414063 432.12595703 40.79414063 432.12595703 41.859375 431.04296875 C44 429 44 429 46.10372543 427.7602644 C48.26883358 426.10511621 48.26883358 426.10511621 48.49219131 423.22578144 C48.48850414 422.09289786 48.48481697 420.96001429 48.48101807 419.7928009 C48.48651672 418.49289719 48.49201538 417.19299347 48.49768066 415.85369873 C48.48352396 414.41003051 48.46898472 412.96636599 48.45410156 411.52270508 C48.45297348 410.00504079 48.45360619 408.48737432 48.45587158 406.9697113 C48.45702119 402.84586302 48.43347236 398.72247832 48.40557575 394.59873796 C48.38060297 390.29059579 48.37822336 385.98244349 48.37347412 381.67424011 C48.36103218 373.51439844 48.32819418 365.35477065 48.28807616 357.19502324 C48.23504501 346.1699535 48.21342282 335.14482545 48.19006729 324.11966038 C48.15243355 306.74627999 48.07275103 289.37335098 48 272 C84.96 272 121.92 272 160 272 C159.84917969 284.96152344 159.69835937 297.92304688 159.54296875 311.27734375 C159.47655057 319.48505967 159.41343248 327.69258097 159.36523438 335.90039062 C159.28810251 348.93077116 159.19744598 361.96005873 159.01928711 374.98950195 C158.88959268 384.47908922 158.80581622 393.96778975 158.77684957 403.45823866 C158.759919 408.48259849 158.72022679 413.50442194 158.62550926 418.52796745 C158.53700102 423.26070848 158.51009624 427.98987955 158.52960014 432.7233696 C158.52603479 434.45651123 158.5003155 436.18977686 158.45032883 437.92220116 C157.95266145 446.75261571 157.95266145 446.75261571 161.2983458 454.58606648 C164.82607986 457.75870946 168.77828649 459.88695909 173 462 C173.99 462.66 174.98 463.32 176 464 C176 395.36 176 326.72 176 256 C128.48 256 80.96 256 32 256 Z M-163 265 C-162.855625 265.61101562 -162.71125 266.22203125 -162.5625 266.8515625 C-158.42556184 287.24896592 -160.03799954 307.97472442 -171 326 C-177.15514166 335.0570372 -184.87599416 341.15127831 -194 347 C-188.80717496 354.44304923 -181.13696057 358.16191758 -172.27734375 359.78125 C-163.26060392 360.64735194 -154.65331079 358.43491432 -147.359375 353.05078125 C-135.63487685 342.99368927 -129.22276545 330.42565643 -128 315 C-127.84478665 299.7545995 -132.2699182 285.90078283 -142.8125 274.6875 C-148.72929276 269.10945491 -154.82077931 265.52207792 -163 265 Z M64 288 C64 330.9 64 373.8 64 418 C66.31 417.67 68.62 417.34 71 417 C72.54144417 416.91837692 74.08530441 416.8696018 75.62890625 416.8671875 C76.43650391 416.86589844 77.24410156 416.86460937 78.07617188 416.86328125 C78.89666016 416.86714844 79.71714844 416.87101563 80.5625 416.875 C81.7990332 416.86919922 81.7990332 416.86919922 83.06054688 416.86328125 C84.27000977 416.86521484 84.27000977 416.86521484 85.50390625 416.8671875 C86.22392822 416.86831543 86.9439502 416.86944336 87.68579102 416.87060547 C90.47828481 417.02674237 93.24119879 417.5401998 96 418 C96 375.1 96 332.2 96 288 C85.44 288 74.88 288 64 288 Z M112 288 C111.75132635 305.82033632 111.54885599 323.63918366 111.43006611 341.46077538 C111.3734345 349.73636528 111.2962833 358.01079777 111.17016602 366.28564453 C111.06024479 373.50129355 110.9894949 380.71610419 110.96502656 387.93256724 C110.95073021 391.7513219 110.91734108 395.56767907 110.83696938 399.38566208 C110.76178935 402.98650003 110.73936755 406.58397572 110.75581551 410.18552399 C110.75138811 412.12350102 110.69244508 414.0611187 110.63137817 415.99813843 C110.7009855 421.40650922 110.91911878 424.69887317 114.44960594 428.94874954 C116.359421 430.76305903 118.31538501 432.32422188 120.40648174 433.94605446 C124.53033428 437.2119534 126.10876037 441.03234485 128.3671875 445.7265625 C132.06013643 449.41604969 132.06013643 449.41604969 144 448 C144 395.2 144 342.4 144 288 C133.44 288 122.88 288 112 288 Z M-208 358 C-208 380.11 -208 402.22 -208 425 C-203.861315 421.55109584 -201.10635225 419.16953905 -197.9375 415.125 C-193.60095336 409.69694162 -189.09089669 404.44474403 -184.51733398 399.21533203 C-183.47390364 398.01979117 -182.43547975 396.81985683 -181.40283203 395.61499023 C-180.17916743 394.20626393 -178.90771432 392.839334 -177.62890625 391.48046875 C-175.48722027 388.21914837 -175.59396238 386.04943117 -175.75 382.1875 C-175.80414063 380.44533203 -175.80414063 380.44533203 -175.859375 378.66796875 C-175.90578125 377.78753906 -175.9521875 376.90710938 -176 376 C-176.80050781 375.76216797 -176.80050781 375.76216797 -177.6171875 375.51953125 C-187.75129436 372.34604796 -195.81322432 367.7214384 -204 361 C-205.32 360.01 -206.64 359.02 -208 358 Z M-263.43359375 375.20703125 C-269.74675316 382.43331597 -272.50465333 391.37279825 -272.18359375 400.91015625 C-271.31535125 410.79334216 -268.57245907 419.91603994 -261.3125 427 C-256.91374351 430.48923917 -252.61394286 431.95648106 -247 432 C-240.14816802 430.90767896 -234.77561899 427.73166553 -230.59375 422.109375 C-224.21575196 412.3940524 -222.97324146 402.1805244 -225.0625 390.8125 C-226.87521295 383.3216086 -229.97815182 378.10351976 -235.3125 372.625 C-245.2489918 366.61688868 -254.79490261 367.08946765 -263.43359375 375.20703125 Z M-76.33984375 443.15625 C-82.99245978 450.54456709 -86.22273793 458.30122698 -88 468 C-88.79921875 467.71125 -89.5984375 467.4225 -90.421875 467.125 C-96.36973135 465.11445701 -101.13645728 463.7828013 -107.4375 464.3125 C-110.4140625 464.4375 -110.4140625 464.4375 -113 464 C-115.08019547 461.94636022 -116.26796453 459.8950789 -117.65234375 457.328125 C-120.39383101 452.59210643 -124.73723539 450.18467854 -129.875 448.625 C-136.69480714 447.25577231 -143.08328821 448.34397393 -149.1484375 451.71484375 C-154.54730439 455.46215853 -157.75964218 460.31053864 -159.60546875 466.58203125 C-160.28955877 470.77462256 -159.88708542 474.86026805 -159 479 C-157.97469096 480.24740282 -157.97469096 480.24740282 -155.79189199 480.1241985 C-154.80499885 480.12381878 -153.81810572 480.12343906 -152.80130672 480.12304783 C-151.66721211 480.12503888 -150.5331175 480.12702993 -149.36465639 480.12908131 C-148.10301103 480.12616847 -146.84136568 480.12325563 -145.54148865 480.12025452 C-144.20006527 480.1206901 -142.85864197 480.12156477 -141.51721913 480.12284368 C-137.81395622 480.12509116 -134.11072197 480.12106393 -130.40746272 480.11606562 C-126.42039463 480.1117649 -122.43332829 480.11320727 -118.44625854 480.1139679 C-111.53270011 480.11449337 -104.61915108 480.11134411 -97.70559502 480.10573006 C-87.70963627 480.09761825 -77.71368208 480.09500017 -67.7177204 480.09374207 C-51.50167104 480.09155104 -35.28562671 480.08488959 -19.06958008 480.07543945 C-3.31306992 480.06626664 12.44343888 480.05918517 28.19995117 480.05493164 C29.65571743 480.05453756 29.65571743 480.05453756 31.14089311 480.05413551 C36.00944562 480.05283051 40.87799815 480.0515668 45.74655068 480.05032361 C86.16437061 480.03994942 126.58218502 480.02232974 167 480 C166.07412788 478.88743874 165.14349377 477.77883956 164.2109375 476.671875 C163.69321777 476.0540918 163.17549805 475.43630859 162.64208984 474.79980469 C155.75069121 467.24652031 147.14650765 464.63498332 137.1796875 463.98828125 C131.53618441 464.0090804 125.11580637 464.44209681 120 467 C119.76216797 466.07380859 119.76216797 466.07380859 119.51953125 465.12890625 C115.55358016 450.73316113 108.67797645 442.89094219 96.125 435.25 C84.96601982 430.78640793 73.70873673 431.30100244 62.6328125 435.71875 C51.60310913 441.08632078 45.68841279 450.53332047 40 461 C39.57589844 460.62488281 39.15179688 460.24976563 38.71484375 459.86328125 C29.1412216 451.51003292 22.9667141 448.12641688 10 449 C3.71283844 450.62599006 -0.2470566 454.67026183 -4.86328125 459.0390625 C-7 461 -7 461 -9 462 C-9.24492187 461.1440625 -9.48984375 460.288125 -9.7421875 459.40625 C-13.49432081 449.24519333 -20.75213861 440.40815467 -30.55859375 435.796875 C-46.30310373 429.45440573 -63.60643137 431.35601914 -76.33984375 443.15625 Z M-229.72265625 442.61328125 C-232 444 -232 444 -240 447 C-240 457.89 -240 468.78 -240 480 C-234.72 480 -229.44 480 -224 480 C-224 466.47 -224 452.94 -224 439 C-226.30036782 439 -227.97933813 441.24734023 -229.72265625 442.61328125 Z " fill="#FFFFFF" transform="translate(296,8)"></path><path d="M0 0 C15.84 0 31.68 0 48 0 C48 21.12 48 42.24 48 64 C32.16 64 16.32 64 0 64 C0 42.88 0 21.76 0 0 Z M16 16 C16 26.56 16 37.12 16 48 C21.28 48 26.56 48 32 48 C32 37.44 32 26.88 32 16 C26.72 16 21.44 16 16 16 Z " fill="#FFFFFF" transform="translate(248,344)"></path><path d="M0 0 C15.84 0 31.68 0 48 0 C48 21.12 48 42.24 48 64 C32.16 64 16.32 64 0 64 C0 42.88 0 21.76 0 0 Z M16 16 C16 26.56 16 37.12 16 48 C21.28 48 26.56 48 32 48 C32 37.44 32 26.88 32 16 C26.72 16 21.44 16 16 16 Z " fill="#FFFFFF" transform="translate(248,264)"></path><path d="M0 0 C15.84 0 31.68 0 48 0 C48 21.12 48 42.24 48 64 C32.16 64 16.32 64 0 64 C0 42.88 0 21.76 0 0 Z M16 16 C16 26.56 16 37.12 16 48 C21.28 48 26.56 48 32 48 C32 37.44 32 26.88 32 16 C26.72 16 21.44 16 16 16 Z " fill="#FFFFFF" transform="translate(248,184)"></path><path d="M0 0 C15.84 0 31.68 0 48 0 C48 21.12 48 42.24 48 64 C32.16 64 16.32 64 0 64 C0 42.88 0 21.76 0 0 Z M16 16 C16 26.56 16 37.12 16 48 C21.28 48 26.56 48 32 48 C32 37.44 32 26.88 32 16 C26.72 16 21.44 16 16 16 Z " fill="#FFFFFF" transform="translate(312,104)"></path><path d="M0 0 C15.84 0 31.68 0 48 0 C48 21.12 48 42.24 48 64 C32.16 64 16.32 64 0 64 C0 42.88 0 21.76 0 0 Z M16 16 C16 26.56 16 37.12 16 48 C21.28 48 26.56 48 32 48 C32 37.44 32 26.88 32 16 C26.72 16 21.44 16 16 16 Z " fill="#FFFFFF" transform="translate(248,104)"></path><path d="M0 0 C5.28 0 10.56 0 16 0 C16 5.28 16 10.56 16 16 C10.72 16 5.44 16 0 16 C0 10.72 0 5.44 0 0 Z " fill="#FFFFFF" transform="translate(184,248)"></path><path d="M0 0 C5.28 0 10.56 0 16 0 C16 5.28 16 10.56 16 16 C10.72 16 5.44 16 0 16 C0 10.72 0 5.44 0 0 Z " fill="#FFFFFF" transform="translate(184,216)"></path><path d="M0 0 C5.28 0 10.56 0 16 0 C16 5.28 16 10.56 16 16 C10.72 16 5.44 16 0 16 C0 10.72 0 5.44 0 0 Z " fill="#FFFFFF" transform="translate(152,216)"></path><path d="M0 0 C5.28 0 10.56 0 16 0 C16 5.28 16 10.56 16 16 C10.72 16 5.44 16 0 16 C0 10.72 0 5.44 0 0 Z " fill="#FFFFFF" transform="translate(120,216)"></path><path d="M0 0 C5.28 0 10.56 0 16 0 C16 5.28 16 10.56 16 16 C10.72 16 5.44 16 0 16 C0 10.72 0 5.44 0 0 Z " fill="#FFFFFF" transform="translate(184,184)"></path><path d="M0 0 C5.28 0 10.56 0 16 0 C16 5.28 16 10.56 16 16 C10.72 16 5.44 16 0 16 C0 10.72 0 5.44 0 0 Z " fill="#FFFFFF" transform="translate(152,184)"></path><path d="M0 0 C5.28 0 10.56 0 16 0 C16 5.28 16 10.56 16 16 C10.72 16 5.44 16 0 16 C0 10.72 0 5.44 0 0 Z " fill="#FFFFFF" transform="translate(120,184)"></path><path d="M0 0 C5.28 0 10.56 0 16 0 C16 5.28 16 10.56 16 16 C10.72 16 5.44 16 0 16 C0 10.72 0 5.44 0 0 Z " fill="#FFFFFF" transform="translate(184,152)"></path><path d="M0 0 C5.28 0 10.56 0 16 0 C16 5.28 16 10.56 16 16 C10.72 16 5.44 16 0 16 C0 10.72 0 5.44 0 0 Z " fill="#FFFFFF" transform="translate(152,152)"></path><path d="M0 0 C5.28 0 10.56 0 16 0 C16 5.28 16 10.56 16 16 C10.72 16 5.44 16 0 16 C0 10.72 0 5.44 0 0 Z " fill="#FFFFFF" transform="translate(120,152)"></path></svg>