<svg xmlns="http://www.w3.org/2000/svg" width="589" height="589"><path d="M0 0 C109.56 0 219.12 0 332 0 C332.020625 40.46625 332.04125 80.9325 332.0625 122.625 C332.071604 135.14518066 332.08070801 147.66536133 332.09008789 160.56494141 C332.09432433 170.91048436 332.09780486 181.25601971 332.09765625 191.6015625 C332.09767172 192.27270995 332.09768719 192.9438574 332.09770313 193.63534266 C332.09867392 252.09458758 331.66907002 310.5443496 331 369 C321.43 369 311.86 369 302 369 C301.99589111 365.63973633 301.99178223 362.27947266 301.98754883 358.81738281 C301.97031179 347.68534376 301.92574379 336.5535331 301.86790943 325.42163467 C301.83336567 318.67574759 301.80791795 311.93006259 301.80444336 305.18408203 C301.80014885 298.66753055 301.77158927 292.15148657 301.72656822 285.63509369 C301.71363024 283.15539257 301.70927232 280.67563061 301.71384621 278.19589996 C302.21537655 258.53057182 302.21537655 258.53057182 293.83088684 241.331604 C292 239 292 239 292 237 C291.41992188 236.7215625 290.83984375 236.443125 290.2421875 236.15625 C288.0992211 235.05116628 286.13714071 233.82526537 284.125 232.5 C275.00562205 226.81084678 264.96229295 226.02733217 254.55859375 228.28515625 C245.94776343 230.69093022 238.3264696 235.91340814 233.390625 243.4609375 C228.82527427 252.18881389 227.70213541 260.29407433 227.68115234 270.00585938 C227.67110672 271.07992035 227.6610611 272.15398132 227.65071106 273.2605896 C227.61997678 276.78830461 227.60287092 280.31594405 227.5859375 283.84375 C227.56721803 286.29854986 227.54764404 288.75334334 227.5272522 291.20812988 C227.47600749 297.65242749 227.43634067 304.09674593 227.39910889 310.5411377 C227.35902125 317.12383142 227.30795061 323.70643901 227.2578125 330.2890625 C227.16114383 343.19265373 227.07772564 356.09628075 227 369 C218.75 369 210.5 369 202 369 C201.99589111 365.63973633 201.99178223 362.27947266 201.98754883 358.81738281 C201.97031179 347.68534376 201.92574379 336.5535331 201.86790943 325.42163467 C201.83336567 318.67574759 201.80791795 311.93006259 201.80444336 305.18408203 C201.80014885 298.66753055 201.77158927 292.15148657 201.72656822 285.63509369 C201.71363024 283.15539257 201.70927232 280.67563061 201.71384621 278.19589996 C201.84966148 255.64477529 201.84966148 255.64477529 190.23828125 236.90625 C182.89037425 230.64834665 173.18049722 227.4210416 163.5546875 227.6875 C154.58328425 228.78491936 146.57798826 231.75316905 140 238 C139.44699219 238.52464844 138.89398438 239.04929687 138.32421875 239.58984375 C130.99606675 247.31804375 129.40371787 256.28339266 129.45410156 266.60009766 C129.43859505 268.27014862 129.43859505 268.27014862 129.42277527 269.97393799 C129.39349112 273.62079632 129.39185108 277.26709616 129.390625 280.9140625 C129.37563372 283.45568898 129.35890459 285.99730575 129.34051514 288.53890991 C129.30138026 294.5239065 129.27965388 300.50871677 129.26654124 306.49380624 C129.25061445 313.31383579 129.21217535 320.13368219 129.17194796 326.95360494 C129.08977678 340.96903701 129.03851356 354.98438345 129 369 C120.75 369 112.5 369 104 369 C103.98541748 365.75567139 103.97083496 362.51134277 103.95581055 359.16870117 C103.90537001 348.42384868 103.83875816 337.67913966 103.76428509 326.93442822 C103.71964534 320.42285091 103.68037495 313.91133526 103.65356445 307.3996582 C103.62746795 301.11013963 103.58702026 294.82085911 103.53681374 288.53148842 C103.52018798 286.13748458 103.50864709 283.7434396 103.50238609 281.34938622 C103.49269845 277.98421925 103.46458269 274.61965545 103.43237305 271.25463867 C103.43380814 270.27495621 103.43524323 269.29527374 103.4367218 268.28590393 C103.28094616 256.70332786 100.34821901 245.34821901 91.9609375 236.9609375 C83.08554522 229.59091211 72.959996 226.23628649 61.43359375 227.21875 C52.22042891 228.71823223 42.76160236 233.00965779 37.05078125 240.5859375 C36.47714844 241.50632812 35.90351563 242.42671875 35.3125 243.375 C34.73113281 244.29023438 34.14976562 245.20546875 33.55078125 246.1484375 C29.91509643 252.83370177 29.69656749 258.69304454 29.68115234 266.14599609 C29.67110672 267.2587793 29.6610611 268.3715625 29.65071106 269.51806641 C29.61988546 273.18651831 29.60284537 276.85489725 29.5859375 280.5234375 C29.56722539 283.07077665 29.54765194 285.6181096 29.5272522 288.16543579 C29.48117194 294.17884285 29.44376209 300.19224307 29.41057932 306.20573008 C29.37230077 313.05464809 29.32290573 319.90347197 29.27259517 326.75231051 C29.1693953 340.83481084 29.08156354 354.9173586 29 369 C19.43 369 9.86 369 0 369 C0 247.23 0 125.46 0 0 Z M99 57 C97.38710513 59.49415116 97.38710513 59.49415116 96.08984375 62.18359375 C95.58074463 63.18334229 95.07164551 64.18309082 94.54711914 65.21313477 C94.01594482 66.27717529 93.48477051 67.34121582 92.9375 68.4375 C91.7907465 70.68575557 90.64227213 72.93313412 89.4921875 75.1796875 C88.91307617 76.3150293 88.33396484 77.45037109 87.73730469 78.62011719 C85.07409578 83.8013235 82.33475295 88.93896748 79.5625 94.0625 C79.09126709 94.94671631 78.62003418 95.83093262 78.13452148 96.74194336 C75.50647825 101.58302672 72.69548789 105.93050201 69.171875 110.17211914 C66.50119875 114.3378177 67.58752271 118.87389756 68.48046875 123.4765625 C71.15113051 133.93260792 77.36833766 141.67680549 86 148 C96.5119775 154.21497617 108.15387299 155.19957753 119.890625 152.28125 C130.79173916 148.74904541 138.9960933 141.81531788 144.21875 131.62109375 C147.1983252 124.82127749 149.36186605 117.74513164 146.75 110.5625 C145.19639841 108.08436902 145.19639841 108.08436902 143.57568359 106.67797852 C141.54468191 104.51512221 140.39417791 102.22869491 139.0390625 99.58984375 C138.48476563 98.51669922 137.93046875 97.44355469 137.359375 96.33789062 C136.78703125 95.21576172 136.2146875 94.09363281 135.625 92.9375 C135.06039062 91.84244141 134.49578125 90.74738281 133.9140625 89.61914062 C130.56068916 83.10257368 127.27785096 76.55570192 124 70 C134.23 70 144.46 70 155 70 C155 101.35 155 132.7 155 165 C151.37 165 147.74 165 144 165 C138.69646435 166.82894931 138.69646435 166.82894931 136 171 C135.85846345 174.12512707 135.99827566 177.02767039 137 180 C139.88358699 182.64442056 141.80648235 183.37961367 145.68920898 183.41992188 C146.61374374 183.43583374 147.5382785 183.45174561 148.49082947 183.46813965 C149.48256668 183.46834106 150.47430389 183.46854248 151.49609375 183.46875 C153.03463768 183.48017029 153.03463768 183.48017029 154.60426331 183.49182129 C156.77203946 183.50261983 158.93986763 183.5054764 161.10766602 183.50097656 C164.4222703 183.50000447 167.7345582 183.54162579 171.04882812 183.5859375 C173.15624518 183.59114473 175.26367027 183.59383269 177.37109375 183.59375 C178.85566322 183.6183429 178.85566322 183.6183429 180.370224 183.64343262 C185.10176383 183.5959716 187.27826335 183.55568083 191.125 180.59399414 C194.01398746 176.59718532 193.6910272 174.8371904 193 170 C190.49155387 166.5060929 189.26269708 166.06567427 185 165 C181.04 165 177.08 165 173 165 C173 133.65 173 102.3 173 70 C183.89 70 194.78 70 206 70 C203.999375 73.8775 201.99875 77.755 199.9375 81.75 C199.01505493 83.5438916 199.01505493 83.5438916 198.07397461 85.37402344 C188.44319271 103.96363686 188.44319271 103.96363686 183.82592773 109.7019043 C181.22382958 112.97688088 181.43042385 115.14356826 181.62890625 119.19140625 C183.18842313 130.99448664 188.54328582 138.61940485 197.578125 146.1484375 C206.283319 152.80369872 216.82678089 154.74526952 227.609375 153.625 C239.02829809 151.26616143 248.73039994 145.89141765 255.57421875 136.32421875 C259.9271984 129.22826562 261.43055737 122.16447943 261.7265625 113.921875 C260.96068129 110.8418796 260.35346593 110.09901187 258.25146484 107.87133789 C254.80088759 103.95634228 252.54954592 99.79635168 250.25 95.13671875 C249.61819824 93.88868217 249.61819824 93.88868217 248.97363281 92.61543274 C247.63984775 89.97732342 246.31920659 87.3329251 245 84.6875 C237.4560409 66.91048639 237.4560409 66.91048639 226 52 C223.67823888 51.54334526 223.67823888 51.54334526 221.04129028 51.60559082 C219.5061528 51.58856613 219.5061528 51.58856613 217.94000244 51.57119751 C216.81785339 51.57412811 215.69570435 51.57705872 214.53955078 51.58007812 C213.35720856 51.57160858 212.17486633 51.56313904 210.95669556 51.55441284 C207.71273771 51.53500289 204.46913233 51.52926725 201.22512674 51.53116035 C198.51641674 51.53127998 195.80776067 51.52271882 193.09906566 51.51438284 C186.70744605 51.49514027 180.31595705 51.49226766 173.92431641 51.49902344 C167.33319279 51.50566202 160.74262912 51.48280999 154.15161908 51.44570971 C148.49119724 51.41500514 142.83095544 51.40365354 137.170452 51.40754652 C133.79041556 51.40961367 130.4108146 51.40414157 127.03085709 51.37965393 C123.25986391 51.35756046 119.49022617 51.36711979 115.71923828 51.38476562 C114.6011377 51.37150238 113.48303711 51.35823914 112.33105469 51.34457397 C106.15963486 51.41179445 102.82246345 51.63493335 99 57 Z " fill="#FFFFFF" transform="translate(129,220)"></path><path d="M0 0 C35.97 0 71.94 0 109 0 C109 66.99 109 133.98 109 203 C73.03 203 37.06 203 0 203 C0 136.01 0 69.02 0 0 Z " fill="#FFFFFF" transform="translate(1,386)"></path><path d="M0 0 C35.64 0 71.28 0 108 0 C108 66.99 108 133.98 108 203 C72.36 203 36.72 203 0 203 C0 136.01 0 69.02 0 0 Z " fill="#FFFFFF" transform="translate(479,386)"></path><path d="M0 0 C13.63832568 11.79686399 23.64036296 27.09448079 28.83984375 44.33984375 C29.03940674 45.00016602 29.23896973 45.66048828 29.44458008 46.34082031 C31.06598138 52.2134303 31.32953844 57.28898534 31.90234375 63.58984375 C-29.14765625 63.58984375 -90.19765625 63.58984375 -153.09765625 63.58984375 C-151.91266847 50.55497813 -151.91266847 50.55497813 -150.03515625 44.33984375 C-149.81964111 43.6223999 -149.60412598 42.90495605 -149.38208008 42.16577148 C-145.57874507 30.20886452 -139.31642254 20.04490751 -131.09765625 10.58984375 C-130.65421875 10.00332031 -130.21078125 9.41679688 -129.75390625 8.8125 C-116.79898304 -7.97360477 -95.0560462 -17.32502621 -74.7265625 -21.0234375 C-46.98214433 -23.98005472 -21.9795737 -17.10138332 0 0 Z " fill="#FFFFFF" transform="translate(355.09765625,102.41015625)"></path><path d="M0 0 C5.68357751 3.40800982 9.690535 7.63842535 11.640625 14.05859375 C11.92697925 17.58358046 11.89306093 21.09730472 11.86767578 24.63208008 C11.86796783 25.6959494 11.86825989 26.75981873 11.86856079 27.85592651 C11.86716898 31.36757603 11.85161451 34.87901261 11.8359375 38.390625 C11.83220685 40.82728459 11.82936012 43.26394568 11.82736206 45.7006073 C11.81972974 52.11050567 11.80008458 58.52031325 11.7779541 64.93017578 C11.75748711 71.47231824 11.74835851 78.01447538 11.73828125 84.55664062 C11.7168384 97.39067128 11.6816594 110.22461076 11.640625 123.05859375 C-1.229375 123.05859375 -14.099375 123.05859375 -27.359375 123.05859375 C-27.53545981 109.65422436 -27.70260536 96.24982449 -27.85415077 82.84515476 C-27.92487879 76.62039912 -27.99947606 70.39574062 -28.08300781 64.17114258 C-28.16352246 58.16065011 -28.23375324 52.1501163 -28.29694748 46.13941765 C-28.32280971 43.84974704 -28.35233598 41.5601147 -28.38563919 39.27054024 C-28.43176018 36.05611824 -28.46468355 32.84180518 -28.49462891 29.62719727 C-28.5111702 28.68707794 -28.52771149 27.74695862 -28.54475403 26.77835083 C-28.59826613 18.39521655 -27.91608745 10.69577807 -22.359375 4.05859375 C-15.76338228 -0.92205381 -8.01677746 -3.1987473 0 0 Z " fill="#FFFFFF" transform="translate(203.359375,465.94140625)"></path><path d="M0 0 C6.76162092 4.80826376 9.87883039 9.10270586 11.4108696 17.21278 C12.05534297 21.6852728 12.02821242 26.08046703 11.94775391 30.59033203 C11.93829239 31.59641006 11.92883087 32.6024881 11.91908264 33.63905334 C11.88569459 36.92883646 11.83750169 40.21821959 11.7890625 43.5078125 C11.76286545 45.80279528 11.73760089 48.09778888 11.71322632 50.39279175 C11.64686863 56.40651233 11.56791319 62.42000286 11.48626709 68.43353271 C11.40505967 74.58059929 11.33585881 80.72779999 11.265625 86.875 C11.12628456 98.916835 10.97251467 110.95842196 10.8125 123 C-2.0575 123 -14.9275 123 -28.1875 123 C-28.27796701 109.07399564 -28.35131215 95.14818734 -28.39474869 81.2219553 C-28.41559889 74.75503663 -28.44387033 68.28832991 -28.48925781 61.8215332 C-28.53280608 55.57751833 -28.55665641 49.33370698 -28.56700897 43.08955193 C-28.57438414 40.71057877 -28.58878608 38.3316164 -28.61042023 35.95273018 C-28.63957265 32.61350799 -28.64345093 29.27512055 -28.64160156 25.93579102 C-28.65598267 24.95826874 -28.67036377 23.98074646 -28.68518066 22.97360229 C-28.6441788 16.10522641 -27.47721452 9.70395829 -22.77545547 4.41014957 C-16.11891354 -1.47051102 -8.39601064 -2.63404255 0 0 Z " fill="#FFFFFF" transform="translate(402.1875,466)"></path><path d="M0 0 C4.76873376 2.75119255 8.33431537 6.60686726 10.25 11.875 C11.31377525 17.6910843 11.35236636 23.31597037 11.27172852 29.21655273 C11.26212097 30.23194626 11.25251343 31.24733978 11.24261475 32.29350281 C11.20977399 35.63194034 11.1693852 38.97024084 11.12890625 42.30859375 C11.10459054 44.63028996 11.08074772 46.95199117 11.05735779 49.2736969 C10.99466127 55.37122305 10.92555396 61.46866025 10.85510254 67.56610107 C10.78428849 73.79337529 10.71954984 80.02071235 10.65429688 86.24804688 C10.52547062 98.45710227 10.38930872 110.66605971 10.25 122.875 C-1.96 122.875 -14.17 122.875 -26.75 122.875 C-26.92600937 109.3229743 -27.09315245 95.77091833 -27.24477577 82.21859741 C-27.31553631 75.92543337 -27.3901511 69.63236463 -27.47363281 63.33935547 C-27.55408403 57.26402772 -27.62433426 51.18865911 -27.68757248 45.11312866 C-27.71345625 42.7975125 -27.74298895 40.4819341 -27.77626419 38.16641235 C-27.82231291 34.91825853 -27.8552779 31.67021151 -27.88525391 28.421875 C-27.9017952 27.46880966 -27.91833649 26.51574432 -27.93537903 25.53379822 C-27.98706722 17.37216388 -27.1011592 10.41530569 -21.75 3.875 C-14.70462664 -1.4449758 -8.41867125 -2.52560138 0 0 Z " fill="#FFFFFF" transform="translate(302.75,466.125)"></path><path d="M0 0 C2.75329021 1.79562405 4.52627461 3.05254922 6 6 C6.08691001 8.84429357 6.11553802 11.66379176 6.09765625 14.5078125 C6.0962413 15.34843231 6.09482635 16.18905212 6.09336853 17.05514526 C6.08776237 19.74513275 6.07520886 22.43503759 6.0625 25.125 C6.05748579 26.94661338 6.05292275 28.76822807 6.04882812 30.58984375 C6.038641 35.05995344 6.01906685 39.52988399 6 44 C-0.27 44 -6.54 44 -13 44 C-13.09196332 38.67889986 -13.17155726 33.3605691 -13.21972656 28.03930664 C-13.23981053 26.2302922 -13.26708341 24.42134243 -13.30175781 22.61254883 C-13.35041892 20.00846379 -13.37300051 17.40523885 -13.390625 14.80078125 C-13.41127014 13.99538406 -13.43191528 13.18998688 -13.45318604 12.36018372 C-13.45477127 8.3703327 -13.29650486 6.46636632 -11.10058594 3.01245117 C-7.50093533 -0.43616807 -4.93028294 -0.41782059 0 0 Z " fill="#FFFFFF" transform="translate(298,0)"></path><path d="M0 0 C8.91 0 17.82 0 27 0 C27 5.94 27 11.88 27 18 C18.09 18 9.18 18 0 18 C0 12.06 0 6.12 0 0 Z " fill="#FFFFFF" transform="translate(259,184)"></path><path d="M0 0 C8.58 0 17.16 0 26 0 C26 5.94 26 11.88 26 18 C17.42 18 8.84 18 0 18 C0 12.06 0 6.12 0 0 Z " fill="#FFFFFF" transform="translate(346,184)"></path><path d="M0 0 C8.25 0 16.5 0 25 0 C25 5.94 25 11.88 25 18 C16.75 18 8.5 18 0 18 C0 12.06 0 6.12 0 0 Z " fill="#FFFFFF" transform="translate(303,184)"></path><path d="M0 0 C8.25 0 16.5 0 25 0 C25 5.94 25 11.88 25 18 C16.75 18 8.5 18 0 18 C0 12.06 0 6.12 0 0 Z " fill="#FFFFFF" transform="translate(217,184)"></path><path d="M0 0 C7.59 0 15.18 0 23 0 C23 5.94 23 11.88 23 18 C15.41 18 7.82 18 0 18 C0 12.06 0 6.12 0 0 Z " fill="#FFFFFF" transform="translate(176,184)"></path><path d="M0 0 C7.26 0 14.52 0 22 0 C22 5.94 22 11.88 22 18 C14.74 18 7.48 18 0 18 C0 12.06 0 6.12 0 0 Z " fill="#FFFFFF" transform="translate(390,184)"></path><path d="M0 0 C0.66 0 1.32 0 2 0 C4.03712549 3.76225077 6.05183781 7.53604956 8.0625 11.3125 C8.64322266 12.38435547 9.22394531 13.45621094 9.82226562 14.56054688 C10.36689453 15.58857422 10.91152344 16.61660156 11.47265625 17.67578125 C11.98062744 18.62364502 12.48859863 19.57150879 13.01196289 20.5480957 C14 23 14 23 13 26 C4.42 26 -4.16 26 -13 26 C-11.58409678 22.46024194 -10.16394082 19.26421341 -8.3984375 15.91796875 C-7.90859375 14.98662109 -7.41875 14.05527344 -6.9140625 13.09570312 C-6.40617188 12.13599609 -5.89828125 11.17628906 -5.375 10.1875 C-4.859375 9.20845703 -4.34375 8.22941406 -3.8125 7.22070312 C-2.5438591 4.81263475 -1.27296034 2.405787 0 0 Z " fill="#FFFFFF" transform="translate(236,300)"></path><path d="M0 0 C2.61980117 2.35075869 4.09234576 4.76749471 5.69921875 7.88671875 C6.42915039 9.2934082 6.42915039 9.2934082 7.17382812 10.72851562 C7.67333984 11.70498047 8.17285156 12.68144531 8.6875 13.6875 C9.19861328 14.67556641 9.70972656 15.66363281 10.23632812 16.68164062 C11.49597455 19.1185267 12.75030279 21.55800096 14 24 C12 26 12 26 9.47802734 26.22705078 C8.4411377 26.21657715 7.40424805 26.20610352 6.3359375 26.1953125 C5.21445312 26.18886719 4.09296875 26.18242187 2.9375 26.17578125 C1.761875 26.15902344 0.58625 26.14226562 -0.625 26.125 C-2.40003906 26.11146484 -2.40003906 26.11146484 -4.2109375 26.09765625 C-7.14082523 26.07402812 -10.0703134 26.04108514 -13 26 C-11.36036204 20.05384306 -8.37624538 14.96477922 -5.375 9.625 C-4.6015625 8.23474609 -4.6015625 8.23474609 -3.8125 6.81640625 C-2.54617189 4.54170575 -1.27524075 2.26971208 0 0 Z " fill="#FFFFFF" transform="translate(350,300)"></path><path d="M0 0 C1.60279192 0.00015914 3.20558896 0.00585476 4.80834961 0.01586914 C5.65038437 0.01728409 6.49241913 0.01869904 7.35997009 0.02015686 C10.06024671 0.02577276 12.76044163 0.03832791 15.46069336 0.05102539 C17.28686404 0.05603834 19.11303602 0.06060161 20.93920898 0.06469727 C25.42556878 0.07574735 29.9118672 0.0930226 34.39819336 0.11352539 C32.88416337 4.26576006 31.74644966 6.00131292 27.96069336 8.36352539 C27.17823242 8.86368164 26.39577148 9.36383789 25.58959961 9.87915039 C20.3786899 12.81435087 14.11203288 13.14712756 8.36303711 11.54711914 C6.66362932 10.83374137 5.02707339 9.97587364 3.39819336 9.11352539 C2.49069336 8.65977539 1.58319336 8.20602539 0.64819336 7.73852539 C-1.96780246 5.84919507 -3.13918271 3.96179304 -4.60180664 1.11352539 C-3.60180664 0.11352539 -3.60180664 0.11352539 0 0 Z " fill="#FFFFFF" transform="translate(221.601806640625,342.886474609375)"></path><path d="M0 0 C12.21 0 24.42 0 37 0 C37 3 37 3 34.8125 5.5 C28.56004976 11.05773354 23.19547658 12.46606632 14.96484375 12.421875 C9.90992937 11.70259865 5.93617556 9.1658868 2 6 C0 3 0 3 0 0 Z " fill="#FFFFFF" transform="translate(332,343)"></path><path d="M0 0 C1.36125 0.680625 1.36125 0.680625 2.75 1.375 C5.36599582 3.26433032 6.53737607 5.15173235 8 8 C5.45620949 9.27189526 3.86222432 8.70526475 1.13574219 8.26660156 C-3.01798939 7.74809735 -7.19523315 7.85708671 -11.375 7.875 C-12.26960938 7.87113281 -13.16421875 7.86726563 -14.0859375 7.86328125 C-19.80093693 7.87158794 -25.33120087 8.27263881 -31 9 C-28.59774583 3.90332562 -25.50665122 0.40744036 -20.25 -1.8125 C-12.91471324 -4.22996739 -6.85820526 -3.56099119 0 0 Z " fill="#FFFFFF" transform="translate(306,56)"></path></svg>