<svg xmlns="http://www.w3.org/2000/svg" width="512" height="512"><path d="M0 0 C7.35134608 5.03133952 12.13034153 12.01619359 13.8671875 20.78125 C14.12350708 24.14818145 14.10101981 27.49606354 14.0625 30.87109375 C14.0596701 31.81561905 14.05684021 32.76014435 14.05392456 33.73329163 C14.04279434 36.72857724 14.0177031 39.72355586 13.9921875 42.71875 C13.98214845 44.7584592 13.97302422 46.79817312 13.96484375 48.83789062 C13.94287846 53.8191274 13.90839826 58.80013678 13.8671875 63.78125 C14.43674667 63.87971725 15.00630585 63.97818451 15.59312439 64.07963562 C22.90834777 65.43414823 29.9063134 67.50422233 36.99609375 69.73828125 C38.22577377 70.1231218 39.4554538 70.50796234 40.72239685 70.90446472 C43.30951027 71.71527253 45.89526381 72.53025725 48.48022461 73.34790039 C51.76711518 74.38686707 55.05815735 75.41194003 58.35049534 76.43349171 C61.52686361 77.42195657 64.69866238 78.42475387 67.87109375 79.42578125 C69.04007706 79.78742874 70.20906036 80.14907623 71.41346741 80.52168274 C81.94403152 83.88108805 92.26842332 88.02345632 98.15234375 97.94921875 C100.65663603 103.16425033 101.10316124 106.6690399 101.8671875 112.78125 C131.2371875 112.78125 160.6071875 112.78125 190.8671875 112.78125 C190.8671875 109.15125 190.8671875 105.52125 190.8671875 101.78125 C193.07234759 89.47877793 200.51216217 79.79641802 210.359375 72.43359375 C222.31681574 64.55509308 235.02172843 64.4573085 248.8515625 64.4453125 C250.59792182 64.43887692 252.34428009 64.432148 254.09063721 64.42514038 C257.7350922 64.41321699 261.37945269 64.40945495 265.02392578 64.41064453 C269.69015839 64.4108486 274.35578802 64.38343385 279.02187729 64.34910011 C282.62156967 64.3268647 286.22111541 64.32280579 289.82086945 64.32386398 C291.54164986 64.3215073 293.26243427 64.31267996 294.98314667 64.29719925 C297.38600771 64.27758625 299.78754704 64.28335553 302.19042969 64.29541016 C302.89702225 64.28417114 303.60361481 64.27293213 304.33161926 64.26135254 C309.09588879 64.32203923 311.53222739 65.39302571 314.8671875 68.78125 C315.53125 70.78125 315.53125 70.78125 315.4921875 72.78125 C315.50507813 73.44125 315.51796875 74.10125 315.53125 74.78125 C314.4779722 77.95347489 312.63982934 78.98700842 309.8671875 80.78125 C307.13881343 81.15648929 304.81927628 81.30666808 302.09863281 81.26367188 C300.9487941 81.26954063 300.9487941 81.26954063 299.77572632 81.27552795 C298.11647613 81.28149081 296.45717351 81.27835481 294.79795074 81.2671051 C292.16512973 81.24980163 289.53340292 81.25737435 286.90057373 81.2713623 C280.35988545 81.30097452 273.81940737 81.28785741 267.27868652 81.27618408 C261.75259247 81.26795327 256.22697701 81.27603711 250.70095062 81.30531311 C248.11894798 81.31236713 245.53780627 81.29577754 242.95587158 81.27819824 C234.90141913 81.28013399 227.90384527 81.39055458 220.8671875 85.78125 C220.21921204 86.12877319 219.57123657 86.47629639 218.90362549 86.83435059 C212.49012653 90.35706338 209.31940823 97.90193479 207.30432224 104.6724205 C206.83143288 106.95373776 206.72792948 109.03295011 206.70896912 111.36236572 C206.69430808 112.73086859 206.69430808 112.73086859 206.67935085 114.12701797 C206.6735806 115.12440868 206.66781034 116.12179939 206.66186523 117.14941406 C206.65183251 118.22041225 206.64179979 119.29141045 206.63146305 120.39486313 C206.60007711 123.8621784 206.57530637 127.32950511 206.55078125 130.796875 C206.53237791 132.93734103 206.51354123 135.07780339 206.4942627 137.21826172 C206.4258154 145.1558809 206.36576238 153.09357067 206.3046875 161.03125 C206.1603125 178.76875 206.0159375 196.50625 205.8671875 214.78125 C272.5271875 214.78125 339.1871875 214.78125 407.8671875 214.78125 C407.8671875 170.56125 407.8671875 126.34125 407.8671875 80.78125 C385.71330567 80.93949633 385.71330567 80.93949633 363.55981445 81.14160156 C359.26599121 81.15966797 359.26599121 81.15966797 357.25309753 81.1630249 C355.85326547 81.16914993 354.45345396 81.18318274 353.05375671 81.20355225 C350.92780144 81.23293264 348.80313052 81.23687105 346.67700195 81.23535156 C345.48009232 81.24423401 344.28318268 81.25311646 343.05000305 81.26226807 C339.21365298 80.6824815 337.57841523 79.51073952 334.8671875 76.78125 C333.8046875 73.84375 333.8046875 73.84375 333.8671875 70.78125 C335.63758199 68.03408613 336.93010594 66.24979078 339.8671875 64.78125 C342.08321394 64.68929381 344.30208957 64.66374982 346.52001953 64.66772461 C347.54458252 64.66750557 347.54458252 64.66750557 348.58984375 64.6672821 C350.8515946 64.66797977 353.1132635 64.67576535 355.375 64.68359375 C356.94155838 64.68545845 358.50811734 64.68688211 360.07467651 64.68788147 C364.20108648 64.69170257 368.32746134 64.7015294 372.45385742 64.71258545 C376.66324387 64.7228083 380.87263597 64.72738097 385.08203125 64.73242188 C393.34376612 64.74315202 401.60547245 64.76022358 409.8671875 64.78125 C409.99996094 64.01554687 410.13273437 63.24984375 410.26953125 62.4609375 C411.81395137 55.5362826 417.34893118 50.81303875 422.8671875 46.78125 C429.4557059 42.73116509 437.3975746 42.89901226 444.8671875 43.78125 C452.56579047 46.13156977 458.88428914 51.00679379 463.1484375 57.83203125 C466.19405552 63.60782829 466.99057845 68.7407342 467.00762939 75.27124023 C467.01333954 76.58349579 467.01904968 77.89575134 467.02493286 79.24777222 C467.02617805 80.6951293 467.02730318 82.14248649 467.02832031 83.58984375 C467.03295133 85.11939615 467.03797637 86.6489474 467.04336548 88.17849731 C467.05645999 92.32716455 467.06292811 96.47581562 467.06737614 100.62450027 C467.07031027 103.21678127 467.07441562 105.80905788 467.07888031 108.40133667 C467.09254447 116.51341894 467.10221769 124.62549114 467.1060822 132.73758411 C467.11056719 142.10009137 467.12814001 151.46245294 467.1570828 160.82491589 C467.17868772 168.06495304 467.18878576 175.30494915 467.19012332 182.5450182 C467.19117176 186.86835652 467.19708834 191.19155769 467.21494293 195.51486206 C467.23140416 199.57949886 467.2335887 203.64389508 467.22480392 207.70855331 C467.22403263 209.19969196 467.22838846 210.69084346 467.23826218 212.18194962 C467.25095563 214.21834712 467.24332264 216.25484104 467.23468018 218.29125977 C467.23614674 219.43055435 467.2376133 220.56984894 467.2391243 221.7436676 C466.82145566 225.15473878 465.90443624 227.03842532 463.8671875 229.78125 C456.40766711 233.51101019 447.20718484 230.78125 438.8671875 230.78125 C439.1971875 250.91125 439.5271875 271.04125 439.8671875 291.78125 C443.1671875 293.10125 446.4671875 294.42125 449.8671875 295.78125 C458.41151573 300.79799129 464.60373647 308.59454019 467.39453125 318.13671875 C469.4673635 329.73430085 467.77744655 338.90458753 462.0546875 348.96875 C455.56698003 357.31008817 448.91860039 361.43077904 438.8671875 364.78125 C426.6117324 365.77531936 416.45509986 364.52648399 406.4921875 356.59375 C398.43084757 348.91868261 394.51008759 339.11031099 393.5546875 328.21875 C393.74202181 317.37417515 398.39186878 308.51617435 405.6796875 300.8828125 C410.93916626 295.85661708 414.62288359 294.67897156 421.8671875 291.78125 C422.1971875 284.19125 422.5271875 276.60125 422.8671875 268.78125 C285.5871875 268.78125 148.3071875 268.78125 6.8671875 268.78125 C7.1971875 276.37125 7.5271875 283.96125 7.8671875 291.78125 C11.1671875 293.10125 14.4671875 294.42125 17.8671875 295.78125 C27.60925526 302.55612588 32.84876343 310.43223624 35.36328125 321.8984375 C37.20971093 332.46173287 34.28970867 341.5202685 28.59375 350.45703125 C22.98335745 358.00948275 15.14080227 363.0029762 5.8671875 364.78125 C-7.02233171 365.70626256 -16.75900308 363.78445833 -26.875 355.32421875 C-33.47223762 349.27911046 -37.72066317 341.46350554 -38.37109375 332.49609375 C-38.61026278 320.32364893 -36.4618968 311.45591236 -28.4140625 302.01171875 C-23.04245795 296.75968759 -17.19738889 294.1361088 -10.1328125 291.78125 C-9.8028125 271.65125 -9.4728125 251.52125 -9.1328125 230.78125 C-19.15522113 230.93930168 -19.15522113 230.93930168 -29.17675781 231.14160156 C-31.04992676 231.15658691 -31.04992676 231.15658691 -32.9609375 231.171875 C-34.2387207 231.19282227 -35.51650391 231.21376953 -36.83300781 231.23535156 C-40.1328125 230.78125 -40.1328125 230.78125 -42.30570984 229.35675049 C-45.08354201 225.44109305 -44.69941163 221.81189424 -44.66625977 217.11914062 C-44.67918312 215.65023628 -44.67918312 215.65023628 -44.69236755 214.1516571 C-44.71507816 210.9133362 -44.70827945 207.67587704 -44.69921875 204.4375 C-44.70445183 202.18835187 -44.71072715 199.93920593 -44.71800232 197.69006348 C-44.7284158 192.97572504 -44.72383091 188.26168828 -44.70922852 183.54736328 C-44.69203439 177.50083068 -44.7155396 171.45524773 -44.75071812 165.40882111 C-44.77265914 160.76427899 -44.77125865 156.11996529 -44.7629528 151.47538757 C-44.76213158 149.24581358 -44.76902747 147.0162231 -44.78372383 144.78669739 C-44.80110948 141.67165415 -44.78667643 138.55833274 -44.76391602 135.44335938 C-44.77560822 134.51960007 -44.78730042 133.59584076 -44.79934692 132.64408875 C-44.70674969 126.42739838 -44.70674969 126.42739838 -41.81993103 123.17736816 C-38.12884276 121.25962791 -36.07474283 121.61327064 -32.1328125 122.78125 C-13.72303249 147.32762335 -29.1328125 184.09828332 -29.1328125 214.78125 C43.4671875 214.78125 116.0671875 214.78125 190.8671875 214.78125 C190.8671875 205.87125 190.8671875 196.96125 190.8671875 187.78125 C188.50604294 187.78791183 186.14489838 187.79457367 183.71220398 187.80143738 C161.50648878 187.86266322 139.30078467 187.90735095 117.09500408 187.93668652 C105.6776414 187.95216993 94.26034057 187.97328758 82.84301758 188.00756836 C72.89423848 188.03742562 62.94550416 188.05681427 52.99668151 188.06351548 C47.72653367 188.06743398 42.45651395 188.07667351 37.18640709 188.09844017 C32.22968461 188.11874733 27.27314349 188.12509553 22.31638336 188.12057304 C20.49383116 188.12140084 18.67127312 188.12740074 16.84875679 188.13886642 C14.3666531 188.15372044 11.88524054 188.15022988 9.40312195 188.14201355 C8.67647124 188.15075207 7.94982054 188.1594906 7.20115012 188.16849393 C4.32590725 188.14264214 2.35590572 188.12312244 -0.0413084 186.44620228 C-2.40750031 182.83687399 -2.25964077 179.53561856 -2.26411438 175.34867859 C-2.26623009 174.69289678 -2.26834581 174.03711497 -2.27052563 173.36146098 C-2.27652625 171.15982122 -2.27552544 168.95823876 -2.2746582 166.7565918 C-2.27768967 165.17969668 -2.28121109 163.60280244 -2.28518677 162.02590942 C-2.29307726 158.62757456 -2.29822125 155.22925021 -2.30147743 151.83090782 C-2.307386 146.45639709 -2.32392497 141.08195264 -2.34281921 135.70747375 C-2.34915665 133.8676825 -2.35548227 132.0278912 -2.36179638 130.18809986 C-2.36496219 129.26670235 -2.368128 128.34530484 -2.37138975 127.3959862 C-2.41347115 114.88257351 -2.44644287 102.36919163 -2.45874023 89.85571289 C-2.46711902 81.4164185 -2.48960289 72.9772881 -2.5280959 64.53807575 C-2.54786267 60.07214366 -2.5602591 55.60645676 -2.55526161 51.14047813 C-2.55061702 46.93868207 -2.56440991 42.73735073 -2.59227371 38.53564835 C-2.59918869 36.99496422 -2.59930871 35.45423208 -2.59207344 33.91354942 C-2.58318005 31.8067387 -2.59888337 29.70145894 -2.62055969 27.59477234 C-2.62294805 26.41693019 -2.6253364 25.23908804 -2.62779713 24.0255537 C-3.3256116 19.54267616 -5.29718245 16.22353075 -8.8828125 13.40625 C-13.54667986 12.11073129 -17.57257144 12.08780953 -21.9453125 14.03125 C-25.1963071 16.63204568 -26.81638532 18.83196845 -28.1328125 22.78125 C-28.23181176 25.20839428 -28.2765085 27.60763966 -28.2746582 30.03491211 C-28.27813263 30.77019638 -28.28160706 31.50548065 -28.28518677 32.26304626 C-28.29253562 33.85904625 -28.29788564 35.4550564 -28.30147743 37.05106926 C-28.30864617 39.57706361 -28.32431475 42.10286408 -28.34281921 44.62879944 C-28.39527671 51.81036764 -28.44328556 58.9918282 -28.45874023 66.17358398 C-28.46881427 70.56685846 -28.49812066 74.95964304 -28.54006004 79.35272408 C-28.55238042 81.02682352 -28.5574894 82.70099212 -28.55526161 84.37513542 C-28.55291194 86.71668802 -28.575046 89.05683112 -28.6027832 91.39819336 C-28.59618179 92.08975525 -28.58958038 92.78131714 -28.58277893 93.49383545 C-28.64701948 96.79477728 -28.95032131 98.53681983 -30.94718933 101.21144104 C-34.14491716 103.50818728 -36.29599981 103.3293661 -40.1328125 102.78125 C-42.31822205 101.23318481 -42.31822205 101.23318481 -44.1328125 98.78125 C-44.53286036 96.06940726 -44.69058279 93.76112826 -44.66625977 91.05029297 C-44.67487534 90.27573257 -44.68349091 89.50117218 -44.69236755 88.70314026 C-44.71506363 86.14289887 -44.70827822 83.5837498 -44.69921875 81.0234375 C-44.70445571 79.23706742 -44.71073245 77.45070012 -44.71800232 75.66433716 C-44.72841547 71.91671767 -44.7238365 68.16947757 -44.70922852 64.421875 C-44.69210851 59.6403288 -44.71544631 54.85999193 -44.75071812 50.07858086 C-44.77278917 46.38597788 -44.77122614 42.69365935 -44.7629528 39.00101089 C-44.76213724 37.2397136 -44.76892452 35.47839458 -44.78372383 33.71715927 C-44.85275998 24.00715666 -44.85770165 16.07919458 -39.1328125 7.78125 C-38.5346875 6.853125 -37.9365625 5.925 -37.3203125 4.96875 C-26.99735019 -5.35421231 -12.59634486 -7.19791135 0 0 Z M428.8671875 61.78125 C424.6090401 66.26351042 423.74169435 69.58567504 423.74693298 75.64677429 C423.74555832 76.87095062 423.74418365 78.09512695 423.74276733 79.35639954 C423.74630646 80.71505762 423.74994127 82.07371545 423.75366211 83.43237305 C423.75394415 84.86136879 423.75378592 86.29036469 423.7532196 87.71936035 C423.75293227 91.60130296 423.75881866 95.48321477 423.76579356 99.36515021 C423.77203775 103.42106963 423.77263174 107.47698973 423.77381897 111.53291321 C423.77692913 119.21454343 423.7851383 126.89615944 423.79516846 134.57778341 C423.80633935 143.32254558 423.81184251 152.06730844 423.81686389 160.81207597 C423.82732116 178.80181034 423.84566275 196.79152523 423.8671875 214.78125 C432.7771875 214.78125 441.6871875 214.78125 450.8671875 214.78125 C450.95749734 195.84883357 451.03117499 176.91659166 451.07443619 157.98401451 C451.09505741 149.19320334 451.12316955 140.40253555 451.16894531 131.61181641 C451.20882661 123.94940743 451.23462352 116.2871023 451.24354148 108.62459242 C451.24875407 104.56767587 451.26099615 100.51105638 451.29010773 96.45423508 C451.31729743 92.63421523 451.32562544 88.81461426 451.31961823 84.99450684 C451.32071689 83.59407905 451.32864999 82.19363698 451.3440094 80.793293 C451.64986122 70.92734545 451.64986122 70.92734545 446.8671875 62.78125 C441.46129948 57.37536198 435.11091386 58.24706527 428.8671875 61.78125 Z M13.8671875 79.78125 C13.8671875 90.67125 13.8671875 101.56125 13.8671875 112.78125 C37.6271875 112.78125 61.3871875 112.78125 85.8671875 112.78125 C84.93154463 107.1673928 84.18506259 104.27249429 79.8671875 100.78125 C72.69016337 97.22237908 64.77188292 95.05541486 57.1484375 92.671875 C55.9687439 92.30020203 54.78905029 91.92852905 53.5736084 91.54559326 C51.10011627 90.76729299 48.6260259 89.99089164 46.15136719 89.21630859 C43.61345671 88.42153327 41.07620639 87.62499326 38.54003906 86.82470703 C34.86883476 85.66639998 31.19638705 84.51213454 27.5234375 83.359375 C26.38394653 83.00006897 25.24445557 82.64076294 24.07043457 82.27056885 C23.02174194 81.94312683 21.97304932 81.61568481 20.89257812 81.27832031 C19.9678772 80.98838196 19.04317627 80.6984436 18.0904541 80.39971924 C15.93066271 79.69191534 15.93066271 79.69191534 13.8671875 79.78125 Z M13.8671875 127.78125 C13.8671875 142.63125 13.8671875 157.48125 13.8671875 172.78125 C72.2771875 172.78125 130.6871875 172.78125 190.8671875 172.78125 C190.8671875 157.93125 190.8671875 143.08125 190.8671875 127.78125 C132.4571875 127.78125 74.0471875 127.78125 13.8671875 127.78125 Z M6.8671875 230.78125 C6.8671875 238.04125 6.8671875 245.30125 6.8671875 252.78125 C144.1471875 252.78125 281.4271875 252.78125 422.8671875 252.78125 C422.8671875 245.52125 422.8671875 238.26125 422.8671875 230.78125 C285.5871875 230.78125 148.3071875 230.78125 6.8671875 230.78125 Z M-18.1328125 314.78125 C-18.6896875 315.35875 -19.2465625 315.93625 -19.8203125 316.53125 C-22.73672325 321.53081128 -23.59111749 326.79338224 -22.5078125 332.46875 C-20.80355911 338.69958724 -17.57752511 343.27243521 -12.1328125 346.78125 C-6.14526129 349.81736182 -1.23159566 350.15498683 5.2890625 348.625 C11.44465781 346.61044153 14.65186362 343.68701205 17.8046875 338.03125 C20.40306084 332.22362747 20.93352195 327.55732845 19.203125 321.4296875 C16.59496704 314.64847682 12.47987833 310.47229677 5.9296875 307.40625 C-3.76796284 305.42713768 -11.5840616 307.10985609 -18.1328125 314.78125 Z M413.8671875 314.78125 C409.90960263 320.3764562 409.06933503 326.04382914 409.8671875 332.78125 C411.97229831 339.18810898 415.83686073 343.42432918 421.1171875 347.53125 C426.54868026 350.00011034 431.75094552 350.37450067 437.4921875 348.71875 C443.28202763 346.49188841 447.36597106 343.08311521 450.7421875 337.90625 C453.51649553 330.19983882 453.20589392 324.2449991 449.8671875 316.78125 C446.1904452 312.21016498 440.90850625 307.51353106 434.8671875 306.78125 C426.21198542 306.11546522 419.97612224 308.81438351 413.8671875 314.78125 Z " fill="#FFFFFF" transform="translate(44.1328125,147.21875)"></path><path d="M0 0 C3.25876532 2.75390049 6.32713669 5.68427337 9.34765625 8.69482422 C10.60255859 9.90332031 10.60255859 9.90332031 11.8828125 11.13623047 C14.40116981 13.75037316 16.53172737 16.44421053 18.66015625 19.38232422 C19.35753906 20.33494141 20.05492187 21.28755859 20.7734375 22.26904297 C22.34765625 24.69482422 22.34765625 24.69482422 22.34765625 26.69482422 C23.00765625 26.69482422 23.66765625 26.69482422 24.34765625 26.69482422 C37.7439418 55.37328017 42.61881917 82.30451773 31.99609375 112.64013672 C29.05957483 120.60968926 25.296542 127.77292455 20.34765625 134.69482422 C19.80367187 135.46181641 19.2596875 136.22880859 18.69921875 137.01904297 C8.88913977 150.21429005 -3.10055957 159.30036204 -17.65234375 166.69482422 C-18.72548828 167.24976563 -18.72548828 167.24976563 -19.8203125 167.81591797 C-40.87758251 177.96923578 -67.60209125 179.03366113 -89.65234375 171.69482422 C-90.61358154 171.38134033 -90.61358154 171.38134033 -91.59423828 171.06152344 C-101.5831655 167.6999863 -110.09512801 162.75964702 -118.65234375 156.69482422 C-119.57015625 156.04513672 -120.48796875 155.39544922 -121.43359375 154.72607422 C-127.90308925 149.85398502 -132.79411099 144.14219853 -137.65234375 137.69482422 C-138.26980469 136.90333984 -138.88726562 136.11185547 -139.5234375 135.29638672 C-154.25143413 115.54971863 -160.29998083 89.88713521 -157.1875 65.58154297 C-153.40125898 41.1346164 -141.36449411 17.20877352 -121.65625 1.88623047 C-85.88519173 -24.20943103 -36.21818575 -28.60851374 0 0 Z M-115.65234375 17.69482422 C-116.71195313 18.61521484 -116.71195313 18.61521484 -117.79296875 19.55419922 C-132.25327535 32.875899 -140.82488137 53.17417617 -142.0390625 72.60107422 C-142.69315803 91.0887331 -138.13783963 106.42409183 -129.65234375 122.69482422 C-128.99234375 122.69482422 -128.33234375 122.69482422 -127.65234375 122.69482422 C-127.46671875 123.59201172 -127.46671875 123.59201172 -127.27734375 124.50732422 C-126.6975839 126.9571377 -126.6975839 126.9571377 -124.65234375 129.69482422 C-123.99234375 129.69482422 -123.33234375 129.69482422 -122.65234375 129.69482422 C-122.265625 130.566875 -122.265625 130.566875 -121.87109375 131.45654297 C-114.99804642 144.07915874 -98.02292173 152.819703 -84.76171875 156.98779297 C-62.59135752 163.3093087 -40.43075852 160.95538479 -19.83984375 150.38232422 C-12.00556086 145.9592789 -4.62673795 140.46580432 1.34765625 133.69482422 C1.34765625 133.03482422 1.34765625 132.37482422 1.34765625 131.69482422 C2.00765625 131.69482422 2.66765625 131.69482422 3.34765625 131.69482422 C18.25187334 114.62772602 23.62416869 91.80636734 22.34765625 69.69482422 C20.01972901 48.65805052 9.80659681 28.24179837 -6.65234375 14.69482422 C-39.96057121 -9.93101742 -84.06324895 -11.07740863 -115.65234375 17.69482422 Z " fill="#FFFFFF" transform="translate(296.65234375,19.30517578125)"></path><path d="M0 0 C0.75539062 -0.01160156 1.51078125 -0.02320313 2.2890625 -0.03515625 C8.94969496 -0.00082309 14.45099676 1.39244193 19.8125 5.5625 C26.40850357 14.04307602 25.31309063 23.17056468 25 33.375 C26.30195313 33.34019531 27.60390625 33.30539063 28.9453125 33.26953125 C30.67186204 33.24138099 32.39842561 33.21408216 34.125 33.1875 C34.9809375 33.16236328 35.836875 33.13722656 36.71875 33.11132812 C42.85641208 33.04050895 47.17737898 33.77132443 51.86328125 38.09375 C52.34152344 38.6815625 52.81976563 39.269375 53.3125 39.875 C54.04919922 40.75671875 54.04919922 40.75671875 54.80078125 41.65625 C58.08083784 46.35730831 57.22295755 52.20802359 57.25 57.6875 C57.270625 58.72068359 57.29125 59.75386719 57.3125 60.81835938 C57.34648448 67.44108578 56.95836354 72.16786498 52.28125 77.23828125 C51.6934375 77.71652344 51.105625 78.19476563 50.5 78.6875 C49.61828125 79.42419922 49.61828125 79.42419922 48.71875 80.17578125 C45.71297912 82.27298957 43.09764346 82.49646069 39.55078125 82.47265625 C38.70322266 82.46943359 37.85566406 82.46621094 36.98242188 82.46289062 C36.10134766 82.45451172 35.22027344 82.44613281 34.3125 82.4375 C33.41982422 82.43298828 32.52714844 82.42847656 31.60742188 82.42382812 C29.40488013 82.41204983 27.20247401 82.39560164 25 82.375 C25.05220703 84.0765625 25.05220703 84.0765625 25.10546875 85.8125 C25.49496785 103.46522536 25.49496785 103.46522536 20.453125 109.10546875 C14.35581193 114.78460327 8.19699564 115.72118946 0.125 115.6875 C-0.63941406 115.70361328 -1.40382812 115.71972656 -2.19140625 115.73632812 C-8.87023467 115.74199776 -13.98557757 114.11666629 -19.8125 110.75 C-26.88282711 103.07364485 -25.30115564 92.09005802 -25 82.375 C-25.86165771 82.4064209 -25.86165771 82.4064209 -26.74072266 82.43847656 C-29.36863374 82.52213764 -31.9962639 82.5738146 -34.625 82.625 C-35.52863281 82.65851563 -36.43226563 82.69203125 -37.36328125 82.7265625 C-43.12763165 82.8107136 -46.46016842 82.29034161 -51 78.375 C-57.38927663 72.03125266 -57.29520576 66.95319488 -57.4375 58.3125 C-57.50614258 56.65057617 -57.50614258 56.65057617 -57.57617188 54.95507812 C-57.66811905 48.19496217 -56.97029894 43.53392469 -52.74658203 38.12255859 C-48.74164547 34.11538276 -44.62088207 33.25770287 -39.16015625 33.08203125 C-37.46068786 33.10171621 -35.76133543 33.13711629 -34.0625 33.1875 C-32.75055664 33.20780273 -32.75055664 33.20780273 -31.41210938 33.22851562 C-29.27446914 33.26355891 -27.13715016 33.31735459 -25 33.375 C-25.05220703 31.54775391 -25.05220703 31.54775391 -25.10546875 29.68359375 C-25.13362512 28.05990972 -25.16092329 26.43621065 -25.1875 24.8125 C-25.21263672 24.01263672 -25.23777344 23.21277344 -25.26367188 22.38867188 C-25.34656359 15.61918169 -24.11620742 11.03537504 -19.8125 5.625 C-13.73862416 0.76589933 -7.51870763 -0.11547503 0 0 Z M-9 17.375 C-9.12149009 19.16914151 -9.17968078 20.96764652 -9.2109375 22.765625 C-9.25347656 24.41884766 -9.25347656 24.41884766 -9.296875 26.10546875 C-9.34860808 28.43604422 -9.39298103 30.76679568 -9.4296875 33.09765625 C-9.460625 34.20496094 -9.4915625 35.31226563 -9.5234375 36.453125 C-9.54325684 37.46793945 -9.56307617 38.48275391 -9.58349609 39.52832031 C-10.06349813 42.80899073 -11.02508077 44.72844233 -13 47.375 C-19.08620756 49.35018227 -26.30760461 48.3889462 -32.65234375 48.24804688 C-33.56628906 48.23708984 -34.48023438 48.22613281 -35.421875 48.21484375 C-36.25299805 48.19800537 -37.08412109 48.18116699 -37.94042969 48.16381836 C-40.22495045 48.17908885 -40.22495045 48.17908885 -42 50.375 C-42.22503811 52.92348356 -42.32440357 55.32763669 -42.3125 57.875 C-42.32861328 58.56464844 -42.34472656 59.25429687 -42.36132812 59.96484375 C-42.39925675 62.20757651 -42.39925675 62.20757651 -42 65.375 C-38.76840162 67.52939892 -38.02330664 67.60392521 -34.32421875 67.5 C-33.41349609 67.48453125 -32.50277344 67.4690625 -31.56445312 67.453125 C-29.65819446 67.40135966 -27.7519443 67.34928026 -25.84570312 67.296875 C-20.85891879 67.21253192 -16.59646503 67.15349703 -12 69.375 C-9.70728207 72.81407689 -9.71639347 74.26134105 -9.62109375 78.3203125 C-9.58693359 79.47917969 -9.55277344 80.63804688 -9.51757812 81.83203125 C-9.49115234 83.04246094 -9.46472656 84.25289063 -9.4375 85.5 C-9.37785366 87.89854445 -9.31427333 90.29699545 -9.24609375 92.6953125 C-9.22216553 93.76023926 -9.1982373 94.82516602 -9.17358398 95.92236328 C-9.27312895 98.32034513 -9.27312895 98.32034513 -8 99.375 C-5.3226862 99.47481214 -2.67695825 99.51379875 0 99.5 C1.12535156 99.50580078 1.12535156 99.50580078 2.2734375 99.51171875 C5.93606117 99.85175541 5.93606117 99.85175541 9 98.375 C9.14602395 96.49682335 9.2273619 94.61354246 9.28125 92.73046875 C9.31863281 91.57869141 9.35601562 90.42691406 9.39453125 89.24023438 C9.42933594 88.02658203 9.46414062 86.81292969 9.5 85.5625 C9.56895867 83.18087169 9.64171705 80.79934957 9.71875 78.41796875 C9.74904297 77.35602295 9.77933594 76.29407715 9.81054688 75.19995117 C9.97311186 72.77593125 10.31026187 70.69448881 11 68.375 C17.36188951 67.41584587 23.51134571 67.28593341 29.9375 67.375 C31.8215589 67.40037453 33.70568232 67.4214532 35.58984375 67.4375 C36.82528931 67.45490234 36.82528931 67.45490234 38.08569336 67.47265625 C40.00949959 67.58888809 40.00949959 67.58888809 41 66.375 C41.07325168 63.51232433 41.09238205 60.674281 41.0625 57.8125 C41.05798828 57.00619141 41.05347656 56.19988281 41.04882812 55.36914062 C41.03700518 53.37106244 41.01906914 51.37302217 41 49.375 C35.4414847 47.91163577 29.81852386 48.35516696 24.125 48.50195312 C18.99141936 48.57121572 14.86272573 48.04615237 10 46.375 C9.97494385 45.50174072 9.9498877 44.62848145 9.92407227 43.72875977 C9.82912291 40.49897448 9.72987971 37.26935846 9.62768555 34.03979492 C9.58428566 32.64010801 9.54261436 31.24036641 9.50268555 29.84057617 C9.44510555 27.83238505 9.38086 25.82438851 9.31640625 23.81640625 C9.26141968 22.00184937 9.26141968 22.00184937 9.20532227 20.15063477 C9.31061734 17.46794544 9.31061734 17.46794544 8 16.375 C5.3226862 16.27518786 2.67695825 16.23620125 0 16.25 C-0.75023437 16.24613281 -1.50046875 16.24226563 -2.2734375 16.23828125 C-5.93606117 15.89824459 -5.93606117 15.89824459 -9 17.375 Z " fill="#FFFFFF" transform="translate(237,39.625)"></path></svg>