<svg xmlns="http://www.w3.org/2000/svg" width="150" height="150"><path d="M0 0 C1.65 0.33 3.3 0.66 5 1 C5 1.99 5 2.98 5 4 C11.93 4 18.86 4 26 4 C26.99 5.98 26.99 5.98 28 8 C26.625 10.5 26.625 10.5 25 13 C25 14.32 25 15.64 25 17 C25.66 17 26.32 17 27 17 C27.38218767 18.65614657 27.71395102 20.32457024 28 22 C27 23 27 23 24.86694336 23.11352539 C23.95050049 23.10828857 23.03405762 23.10305176 22.08984375 23.09765625 C21.10048828 23.09443359 20.11113281 23.09121094 19.09179688 23.08789062 C18.05087891 23.07951172 17.00996094 23.07113281 15.9375 23.0625 C14.89271484 23.05798828 13.84792969 23.05347656 12.77148438 23.04882812 C10.1809334 23.03699913 7.59049441 23.02051689 5 23 C5.11957223 24.44221055 5.25071207 25.88346513 5.38671875 27.32421875 C5.45850342 28.12690186 5.53028809 28.92958496 5.60424805 29.7565918 C6.17931656 33.01649593 7.69168199 34.69168199 10 37 C10.49894775 37.70705078 10.99789551 38.41410156 11.51196289 39.14257812 C15.44479265 42.07859704 19.25164307 41.21932248 23.99609375 40.90625 C26.01520768 40.82771124 28.03460697 40.75625091 30.05419922 40.69116211 C31.10057556 40.65650848 32.1469519 40.62185486 33.22503662 40.58615112 C56.43025198 39.96383886 56.43025198 39.96383886 63.43701172 43.96044922 C68.4748153 48.95095873 71.439837 55.10749909 73 62 C73 62.66 73 63.32 73 64 C73.66 64 74.32 64 75 64 C76.76462683 67.08809695 77 68.23312136 77 72 C73.535 72.495 73.535 72.495 70 73 C70 92.8 70 112.6 70 133 C72.31 133.33 74.62 133.66 77 134 C77 135.32 77 136.64 77 138 C73.66284941 139.00452731 70.63234509 139.12572093 67.1550293 139.12698364 C65.36323746 139.13121338 65.36323746 139.13121338 63.5352478 139.13552856 C62.22810822 139.13350433 60.92096863 139.1314801 59.57421875 139.12939453 C58.18112136 139.13074984 56.78802433 139.1325305 55.39492798 139.13470459 C51.61401618 139.13926352 47.83313167 139.13749568 44.05221939 139.1343255 C40.09560319 139.13179397 36.13898934 139.13414166 32.18237305 139.13571167 C25.53791891 139.13753104 18.89347589 139.13513314 12.24902344 139.13037109 C4.56687498 139.12492892 -3.11524694 139.12669174 -10.79739475 139.1321975 C-17.39281472 139.13673524 -23.9882267 139.13737593 -30.58364773 139.13475883 C-34.52294284 139.1331997 -38.46222547 139.13299234 -42.40151978 139.13629532 C-46.10493843 139.13918361 -49.80832286 139.13718067 -53.51173782 139.13140106 C-55.519574 139.12944769 -57.52741308 139.13241924 -59.5352478 139.13552856 C-60.7297757 139.13270874 -61.92430359 139.12988892 -63.1550293 139.12698364 C-64.19330368 139.12660662 -65.23157806 139.12622959 -66.30131531 139.12584114 C-68.69897967 139.01403674 -70.71066111 138.68912186 -73 138 C-73 136.68 -73 135.36 -73 134 C-70.69 133.67 -68.38 133.34 -66 133 C-66 113.2 -66 93.4 -66 73 C-67.98 73 -69.96 73 -72 73 C-72.92294353 70.00176726 -73.24421574 68.53427704 -71.91796875 65.6328125 C-70.70434158 63.87401196 -69.4709265 62.12877937 -68.22314453 60.39404297 C-66.61354398 58.06192034 -65.38155738 55.74486112 -64.2253418 53.16015625 C-62.11970789 48.81453194 -59.93469113 44.92247779 -56 42 C-48.58550398 39.52530699 -40.31001447 40.49116137 -32.625 40.875 C-29.45210525 40.97895044 -26.280632 41.06133154 -23.10653687 41.1177063 C-21.14015633 41.15826526 -19.17411019 41.22924781 -17.21011353 41.334198 C-14.71028065 41.41516138 -12.45971974 41.45553594 -10 41 C-7.45620707 38.65338853 -7.45620707 38.65338853 -6 36 C-5.34 36 -4.68 36 -4 36 C-4 35.34 -4 34.68 -4 34 C-3.34 33.67 -2.68 33.34 -2 33 C-1.96241577 31.6070874 -1.96241577 31.6070874 -1.92407227 30.18603516 C-1.82902068 26.74564196 -1.72978293 23.30542287 -1.62768555 19.86523438 C-1.58433411 18.37537359 -1.54265916 16.88546305 -1.50268555 15.39550781 C-1.44498785 13.25570673 -1.38129245 11.11615615 -1.31640625 8.9765625 C-1.27974854 7.68830566 -1.24309082 6.40004883 -1.20532227 5.07275391 C-1 2 -1 2 0 0 Z M5 9 C5 11.97 5 14.94 5 18 C9.95 18 14.9 18 20 18 C19.67 16.35 19.34 14.7 19 13 C19.66 11.68 20.32 10.36 21 9 C15.72 9 10.44 9 5 9 Z M-0.38755798 38.32200623 C-0.92345047 38.94076126 -1.45934296 39.5595163 -2.01147461 40.19702148 C-5.49088059 44.15328456 -9.04011068 48.03435941 -12.62133789 51.89868164 C-14.14437476 53.5681304 -15.64469391 55.25864258 -17.11938477 56.97094727 C-17.83344482 57.7958667 -18.54750488 58.62078613 -19.28320312 59.47070312 C-19.90352417 60.20252808 -20.52384521 60.93435303 -21.16296387 61.68835449 C-35.69122832 75.90186362 -37.09814007 72.11474593 -61 73 C-61 92.8 -61 112.6 -61 133 C-45.82 133 -30.64 133 -15 133 C-14.75078362 123.35241715 -14.75078362 123.35241715 -14.52197266 113.7043457 C-14.4863623 112.49866943 -14.45075195 111.29299316 -14.4140625 110.05078125 C-14.3826416 108.82012939 -14.3512207 107.58947754 -14.31884766 106.3215332 C-14.01133058 103.11803412 -13.47482879 100.84712062 -12 98 C-7.88815087 95.94407544 -2.58165712 96.77090992 1.9375 96.75 C3.60329102 96.7190625 3.60329102 96.7190625 5.30273438 96.6875 C6.36685547 96.68234375 7.43097656 96.6771875 8.52734375 96.671875 C9.50437256 96.6625293 10.48140137 96.65318359 11.48803711 96.64355469 C14 97 14 97 15.77954102 98.33300781 C18.40072874 101.91321781 18.18991339 105.5727818 18.31640625 109.85546875 C18.35451416 111.06614014 18.39262207 112.27681152 18.43188477 113.52416992 C18.49653931 115.83251831 18.49653931 115.83251831 18.5625 118.1875 C18.7790625 125.5196875 18.7790625 125.5196875 19 133 C34.18 133 49.36 133 65 133 C65 113.2 65 93.4 65 73 C52.13 72.505 52.13 72.505 39 72 C33.85398018 67.49723266 28.92960696 63.05342042 24.1640625 58.19140625 C22.92330321 56.93802617 21.68241424 55.68477446 20.44140625 54.43164062 C18.51715767 52.48239216 16.59457267 50.53155095 14.67431641 48.57836914 C12.80020162 46.67424016 10.92006678 44.77622603 9.0390625 42.87890625 C8.17349228 41.99314659 8.17349228 41.99314659 7.29043579 41.0894928 C5.89778729 39.68804268 4.45334043 38.33840722 3 37 C0.92191529 36.7700673 0.92191529 36.7700673 -0.38755798 38.32200623 Z M-57.46875 51.7265625 C-58.35148049 53.46512677 -59.19598937 55.22365945 -60 57 C-61.11678855 58.68626663 -62.25903856 60.35624198 -63.4375 62 C-65.47867764 64.76195342 -65.47867764 64.76195342 -66 68 C-61.83760235 68.17391101 -57.67716207 68.30045376 -53.51220703 68.38452148 C-52.09776962 68.4195835 -50.68358342 68.46725128 -49.27001953 68.52807617 C-41.12988187 69.16133521 -41.12988187 69.16133521 -33.77050781 66.44580078 C-32.30166082 64.69881043 -31.16984503 62.9514149 -30 61 C-29.34 60.67 -28.68 60.34 -28 60 C-28 59.34 -28 58.68 -28 58 C-27.4225 57.7525 -26.845 57.505 -26.25 57.25 C-23.67060021 55.81700012 -21.93878408 54.21575324 -20 52 C-20 51.34 -20 50.68 -20 50 C-18.68 49.34 -17.36 48.68 -16 48 C-16 47.67 -16 47.34 -16 47 C-21.14083851 46.75168722 -26.27815224 46.57087026 -31.42358398 46.45068359 C-33.17094741 46.40056955 -34.91789504 46.33245102 -36.66381836 46.24560547 C-48.52772148 45.17748389 -48.52772148 45.17748389 -57.46875 51.7265625 Z M20 47 C20.99 47.495 20.99 47.495 22 48 C22.33 48.99 22.66 49.98 23 51 C23.66 51 24.32 51 25 51 C25.33 51.99 25.66 52.98 26 54 C26.66 54 27.32 54 28 54 C28.268125 54.639375 28.53625 55.27875 28.8125 55.9375 C29.88667752 58.33131686 29.88667752 58.33131686 33 59 C33.33 59.99 33.66 60.98 34 62 C34.66 62 35.32 62 36 62 C36.28875 62.61875 36.5775 63.2375 36.875 63.875 C37.93720042 66.13325765 37.93720042 66.13325765 40 68 C43.11038944 68.27904629 43.11038944 68.27904629 46.7578125 68.1953125 C47.42086395 68.1924826 48.08391541 68.18965271 48.76705933 68.18673706 C50.88655583 68.17553435 53.00563104 68.15043051 55.125 68.125 C56.56119182 68.11497028 57.99739025 68.10584441 59.43359375 68.09765625 C62.95586628 68.075595 66.47789203 68.04106494 70 68 C68.68209823 65.28312382 67.2531344 62.70432091 65.65234375 60.14453125 C64.99202148 59.08782227 64.99202148 59.08782227 64.31835938 58.00976562 C63.86267578 57.28466797 63.40699219 56.55957031 62.9375 55.8125 C62.47794922 55.07580078 62.01839844 54.33910156 61.54492188 53.58007812 C59.51052308 50.10729253 59.51052308 50.10729253 57 47 C54.26105915 46.91141354 51.5474673 46.88476521 48.80859375 46.90234375 C47.98875504 46.9037587 47.16891632 46.90517365 46.32423401 46.90663147 C43.69528618 46.91224711 41.06642227 46.92480221 38.4375 46.9375 C36.65950643 46.94251299 34.88151154 46.94707624 33.10351562 46.95117188 C28.73564455 46.96222161 24.36783652 46.97949669 20 47 Z M-9 101 C-9.33 102.32 -9.66 103.64 -10 105 C-2.08 105 5.84 105 14 105 C13.67 103.68 13.34 102.36 13 101 C5.74 101 -1.52 101 -9 101 Z M-10 110 C-10 117.59 -10 125.18 -10 133 C-7.03 133 -4.06 133 -1 133 C-1 125.41 -1 117.82 -1 110 C-3.97 110 -6.94 110 -10 110 Z M5 110 C5 117.59 5 125.18 5 133 C7.97 133 10.94 133 14 133 C14 125.41 14 117.82 14 110 C11.03 110 8.06 110 5 110 Z " fill="#FFFFFF" transform="translate(73,6)"></path><path d="M0 0 C4.12585234 2.30204728 6.1203872 5.04865642 7.75 9.4375 C9.09122998 14.35534324 8.84381136 17.88502772 6.91015625 22.5078125 C4.53478504 26.45876663 0.84759313 29.38870344 -3.25 31.4375 C-8.14911617 31.97499296 -12.0947045 32.00424874 -16.5625 29.8125 C-20.89442247 25.98428945 -24.30442843 22.91939582 -25.3125 17.0625 C-25.59862152 12.0637887 -24.18405196 8.44562456 -21.25 4.4375 C-15.25931917 -1.84959472 -7.97805129 -3.48946542 0 0 Z M-17.25 7.4375 C-19.9316265 11.45993975 -19.93957829 14.71015002 -19.25 19.4375 C-17.19161475 22.77350367 -15.5106736 24.2637176 -12.25 26.4375 C-7.25098397 26.90037185 -4.24126735 26.54181905 -0.25 23.4375 C1.87836673 21.52930914 2.63589498 20.1791826 3.0703125 17.35546875 C3.27114758 13.31868361 3.1019295 11.0282388 1 7.5 C-2.10316144 4.65543535 -3.93973926 3.60840358 -8.125 3.0625 C-12.09487514 3.53888502 -14.14536536 4.96790426 -17.25 7.4375 Z " fill="#FFFFFF" transform="translate(83.25,63.5625)"></path><path d="M0 0 C1.43859375 -0.00773437 1.43859375 -0.00773437 2.90625 -0.015625 C5.5 0.25 5.5 0.25 8.5 2.25 C8.87231445 4.09765625 8.87231445 4.09765625 8.86328125 6.3125 C8.86263672 7.10914062 8.86199219 7.90578125 8.86132812 8.7265625 C8.84521484 9.55929688 8.82910156 10.39203125 8.8125 11.25 C8.81733398 12.49910156 8.81733398 12.49910156 8.82226562 13.7734375 C8.76700255 19.98299745 8.76700255 19.98299745 6.5 22.25 C3.53125 22.515625 3.53125 22.515625 0 22.5 C-1.1653125 22.50515625 -2.330625 22.5103125 -3.53125 22.515625 C-6.5 22.25 -6.5 22.25 -8.5 20.25 C-8.94293542 17.27032424 -8.82414428 14.25888134 -8.8125 11.25 C-8.82861328 10.41726562 -8.84472656 9.58453125 -8.86132812 8.7265625 C-8.86197266 7.92992188 -8.86261719 7.13328125 -8.86328125 6.3125 C-8.86626221 5.58160156 -8.86924316 4.85070312 -8.87231445 4.09765625 C-7.9675848 -0.39217588 -3.69484865 -0.01986478 0 0 Z M-3.5 6.25 C-3.5 7.57 -3.5 8.89 -3.5 10.25 C-1.19 10.25 1.12 10.25 3.5 10.25 C3.17 8.6 2.84 6.95 2.5 5.25 C-1.2763932 4.9518576 -1.2763932 4.9518576 -3.5 6.25 Z M-3.5 15.25 C-3.5 15.91 -3.5 16.57 -3.5 17.25 C-1.19 17.25 1.12 17.25 3.5 17.25 C3.5 16.59 3.5 15.93 3.5 15.25 C1.19 15.25 -1.12 15.25 -3.5 15.25 Z " fill="#FFFFFF" transform="translate(24.5,84.75)"></path><path d="M0 0 C1.43859375 -0.00773437 1.43859375 -0.00773437 2.90625 -0.015625 C5.5 0.25 5.5 0.25 8.5 2.25 C8.87231445 4.09765625 8.87231445 4.09765625 8.86328125 6.3125 C8.86263672 7.10914062 8.86199219 7.90578125 8.86132812 8.7265625 C8.84521484 9.55929688 8.82910156 10.39203125 8.8125 11.25 C8.81733398 12.49910156 8.81733398 12.49910156 8.82226562 13.7734375 C8.76700255 19.98299745 8.76700255 19.98299745 6.5 22.25 C3.27734375 22.48046875 3.27734375 22.48046875 -0.5625 22.4375 C-1.83222656 22.43105469 -3.10195312 22.42460938 -4.41015625 22.41796875 C-7.5 22.25 -7.5 22.25 -8.5 21.25 C-8.77686887 18.11257232 -8.73173629 14.96070723 -8.75 11.8125 C-8.770625 10.92755859 -8.79125 10.04261719 -8.8125 9.13085938 C-8.81765625 8.28458984 -8.8228125 7.43832031 -8.828125 6.56640625 C-8.8374707 5.78724854 -8.84681641 5.00809082 -8.85644531 4.20532227 C-8.73881836 3.56006592 -8.62119141 2.91480957 -8.5 2.25 C-5.14802157 0.01534771 -3.92208754 -0.02108649 0 0 Z M-3.5 5.25 C-3.5 6.9 -3.5 8.55 -3.5 10.25 C-1.19 10.25 1.12 10.25 3.5 10.25 C3.17 8.6 2.84 6.95 2.5 5.25 C0.52 5.25 -1.46 5.25 -3.5 5.25 Z M-3.5 15.25 C-3.5 15.91 -3.5 16.57 -3.5 17.25 C-1.19 17.25 1.12 17.25 3.5 17.25 C3.5 16.59 3.5 15.93 3.5 15.25 C1.19 15.25 -1.12 15.25 -3.5 15.25 Z " fill="#FFFFFF" transform="translate(104.5,84.75)"></path><path d="M0 0 C1.43859375 -0.00773437 1.43859375 -0.00773437 2.90625 -0.015625 C5.5 0.25 5.5 0.25 8.5 2.25 C8.87231445 4.09765625 8.87231445 4.09765625 8.86328125 6.3125 C8.86263672 7.10914062 8.86199219 7.90578125 8.86132812 8.7265625 C8.84521484 9.55929688 8.82910156 10.39203125 8.8125 11.25 C8.81733398 12.49910156 8.81733398 12.49910156 8.82226562 13.7734375 C8.76700255 19.98299745 8.76700255 19.98299745 6.5 22.25 C3.53125 22.515625 3.53125 22.515625 0 22.5 C-1.1653125 22.50515625 -2.330625 22.5103125 -3.53125 22.515625 C-6.5 22.25 -6.5 22.25 -8.5 20.25 C-8.94293542 17.27032424 -8.82414428 14.25888134 -8.8125 11.25 C-8.82861328 10.41726562 -8.84472656 9.58453125 -8.86132812 8.7265625 C-8.86197266 7.92992188 -8.86261719 7.13328125 -8.86328125 6.3125 C-8.86626221 5.58160156 -8.86924316 4.85070312 -8.87231445 4.09765625 C-7.9675848 -0.39217588 -3.69484865 -0.01986478 0 0 Z M-3.5 5.25 C-3.5 6.9 -3.5 8.55 -3.5 10.25 C-1.19 10.25 1.12 10.25 3.5 10.25 C3.5 8.6 3.5 6.95 3.5 5.25 C1.19 5.25 -1.12 5.25 -3.5 5.25 Z M-3.5 15.25 C-3.5 15.91 -3.5 16.57 -3.5 17.25 C-1.19 17.25 1.12 17.25 3.5 17.25 C3.5 16.59 3.5 15.93 3.5 15.25 C1.19 15.25 -1.12 15.25 -3.5 15.25 Z " fill="#FFFFFF" transform="translate(125.5,84.75)"></path><path d="M0 0 C1.06347656 0.00386719 2.12695312 0.00773437 3.22265625 0.01171875 C5.9375 0.3125 5.9375 0.3125 7.9375 2.3125 C8.16455078 4.28369141 8.16455078 4.28369141 8.1328125 6.6640625 C8.12636719 7.51484375 8.11992188 8.365625 8.11328125 9.2421875 C8.09652344 10.13164063 8.07976563 11.02109375 8.0625 11.9375 C8.05347656 12.8346875 8.04445313 13.731875 8.03515625 14.65625 C8.0115497 16.87526586 7.9786231 19.09375077 7.9375 21.3125 C5.08911879 22.7366906 2.60962092 22.48245508 -0.5625 22.5 C-1.7278125 22.51417969 -2.893125 22.52835938 -4.09375 22.54296875 C-7.0625 22.3125 -7.0625 22.3125 -9.0625 20.3125 C-9.28802341 17.45684641 -9.38678763 14.7299649 -9.375 11.875 C-9.39111328 11.09833984 -9.40722656 10.32167969 -9.42382812 9.52148438 C-9.42877171 3.78197682 -9.42877171 3.78197682 -7.71777344 1.58886719 C-5.21478163 -0.34116838 -3.10760519 -0.04908732 0 0 Z M-4.0625 5.3125 C-4.0625 6.9625 -4.0625 8.6125 -4.0625 10.3125 C-1.7525 10.3125 0.5575 10.3125 2.9375 10.3125 C2.9375 8.6625 2.9375 7.0125 2.9375 5.3125 C0.6275 5.3125 -1.6825 5.3125 -4.0625 5.3125 Z M-4.0625 15.3125 C-4.0625 15.9725 -4.0625 16.6325 -4.0625 17.3125 C-1.7525 17.3125 0.5575 17.3125 2.9375 17.3125 C2.9375 16.6525 2.9375 15.9925 2.9375 15.3125 C0.6275 15.3125 -1.6825 15.3125 -4.0625 15.3125 Z " fill="#FFFFFF" transform="translate(46.0625,84.6875)"></path><path d="M0 0 C0.59039062 0.32484375 1.18078125 0.6496875 1.7890625 0.984375 C1.84288356 3.60964689 1.88264563 6.23382213 1.9140625 8.859375 C1.93082031 9.60574219 1.94757812 10.35210937 1.96484375 11.12109375 C1.9824584 13.07631961 1.89226439 15.03179521 1.7890625 16.984375 C-0.2109375 18.984375 -0.2109375 18.984375 -3.1796875 19.25 C-4.345 19.24484375 -5.5103125 19.2396875 -6.7109375 19.234375 C-7.87625 19.23953125 -9.0415625 19.2446875 -10.2421875 19.25 C-13.2109375 18.984375 -13.2109375 18.984375 -15.2109375 16.984375 C-15.35601445 14.23951907 -15.39746173 11.59956957 -15.3359375 8.859375 C-15.32240234 7.72822266 -15.32240234 7.72822266 -15.30859375 6.57421875 C-15.2850062 4.71080246 -15.24913469 2.84754907 -15.2109375 0.984375 C-10.07438339 -0.83873998 -5.2158394 -2.39596863 0 0 Z M-10.2109375 4.984375 C-10.2109375 5.314375 -10.2109375 5.644375 -10.2109375 5.984375 C-7.9009375 5.984375 -5.5909375 5.984375 -3.2109375 5.984375 C-3.2109375 5.654375 -3.2109375 5.324375 -3.2109375 4.984375 C-5.5209375 4.984375 -7.8309375 4.984375 -10.2109375 4.984375 Z M-10.2109375 11.984375 C-10.2109375 12.644375 -10.2109375 13.304375 -10.2109375 13.984375 C-7.9009375 13.984375 -5.5909375 13.984375 -3.2109375 13.984375 C-3.2109375 13.324375 -3.2109375 12.664375 -3.2109375 11.984375 C-5.5209375 11.984375 -7.8309375 11.984375 -10.2109375 11.984375 Z " fill="#FFFFFF" transform="translate(31.2109375,114.015625)"></path><path d="M0 0 C0.7528125 -0.00515625 1.505625 -0.0103125 2.28125 -0.015625 C4.7296721 0.27749596 6.37304054 1.03183231 8.5 2.25 C8.55382106 4.87527189 8.59358313 7.49944713 8.625 10.125 C8.64175781 10.87136719 8.65851562 11.61773437 8.67578125 12.38671875 C8.6933959 14.34194461 8.60320189 16.29742021 8.5 18.25 C6.5 20.25 6.5 20.25 3.53125 20.48046875 C2.3659375 20.46628906 1.200625 20.45210937 0 20.4375 C-1.1653125 20.43105469 -2.330625 20.42460937 -3.53125 20.41796875 C-6.5 20.25 -6.5 20.25 -8.5 19.25 C-8.5 13.64 -8.5 8.03 -8.5 2.25 C-4.8860207 0.44301035 -3.76236953 -0.02576965 0 0 Z M-3.5 6.25 C-3.17 6.91 -2.84 7.57 -2.5 8.25 C-0.52 8.25 1.46 8.25 3.5 8.25 C3.5 7.59 3.5 6.93 3.5 6.25 C1.19 6.25 -1.12 6.25 -3.5 6.25 Z M-3.5 13.25 C-3.5 13.91 -3.5 14.57 -3.5 15.25 C-1.19 15.25 1.12 15.25 3.5 15.25 C3.5 14.59 3.5 13.93 3.5 13.25 C1.19 13.25 -1.12 13.25 -3.5 13.25 Z " fill="#FFFFFF" transform="translate(45.5,112.75)"></path><path d="M0 0 C0.75796875 0.00515625 1.5159375 0.0103125 2.296875 0.015625 C3.04453125 0.01046875 3.7921875 0.0053125 4.5625 0 C7.58120635 0.32275477 10.20202816 1.22964031 13.046875 2.265625 C13.10069606 4.89089689 13.14045813 7.51507213 13.171875 10.140625 C13.18863281 10.88699219 13.20539063 11.63335937 13.22265625 12.40234375 C13.2402709 14.35756961 13.15007689 16.31304521 13.046875 18.265625 C11.046875 20.265625 11.046875 20.265625 8.078125 20.53125 C6.9128125 20.52609375 5.7475 20.5209375 4.546875 20.515625 C3.3815625 20.52078125 2.21625 20.5259375 1.015625 20.53125 C-1.953125 20.265625 -1.953125 20.265625 -3.953125 18.265625 C-4.15164602 15.55639699 -4.23151977 12.97259321 -4.203125 10.265625 C-4.21085937 9.52828125 -4.21859375 8.7909375 -4.2265625 8.03125 C-4.19933571 0.57110966 -4.19933571 0.57110966 0 0 Z M1.046875 5.265625 C1.046875 6.255625 1.046875 7.245625 1.046875 8.265625 C3.356875 8.265625 5.666875 8.265625 8.046875 8.265625 C7.716875 7.275625 7.386875 6.285625 7.046875 5.265625 C6.056875 5.265625 5.066875 5.265625 4.046875 5.265625 C3.716875 5.595625 3.386875 5.925625 3.046875 6.265625 C2.386875 5.935625 1.726875 5.605625 1.046875 5.265625 Z M1.046875 13.265625 C1.046875 13.925625 1.046875 14.585625 1.046875 15.265625 C3.356875 15.265625 5.666875 15.265625 8.046875 15.265625 C8.046875 14.605625 8.046875 13.945625 8.046875 13.265625 C5.736875 13.265625 3.426875 13.265625 1.046875 13.265625 Z " fill="#FFFFFF" transform="translate(120.953125,112.734375)"></path><path d="M0 0 C1.11181641 0.48726563 1.11181641 0.48726563 2.24609375 0.984375 C2.29991481 3.60964689 2.33967688 6.23382213 2.37109375 8.859375 C2.38785156 9.60574219 2.40460938 10.35210937 2.421875 11.12109375 C2.43948965 13.07631961 2.34929564 15.03179521 2.24609375 16.984375 C0.24609375 18.984375 0.24609375 18.984375 -2.72265625 19.25 C-3.88796875 19.24484375 -5.05328125 19.2396875 -6.25390625 19.234375 C-7.41921875 19.23953125 -8.58453125 19.2446875 -9.78515625 19.25 C-12.75390625 18.984375 -12.75390625 18.984375 -14.75390625 16.984375 C-14.8989832 14.23951907 -14.94043048 11.59956957 -14.87890625 8.859375 C-14.86537109 7.72822266 -14.86537109 7.72822266 -14.8515625 6.57421875 C-14.82797495 4.71080246 -14.79210344 2.84754907 -14.75390625 0.984375 C-9.91059135 -1.73392201 -5.15028468 -1.89939577 0 0 Z M-9.75390625 4.984375 C-9.75390625 5.644375 -9.75390625 6.304375 -9.75390625 6.984375 C-7.44390625 6.984375 -5.13390625 6.984375 -2.75390625 6.984375 C-2.75390625 6.324375 -2.75390625 5.664375 -2.75390625 4.984375 C-5.06390625 4.984375 -7.37390625 4.984375 -9.75390625 4.984375 Z M-9.75390625 10.984375 C-9.75390625 11.974375 -9.75390625 12.964375 -9.75390625 13.984375 C-7.44390625 13.984375 -5.13390625 13.984375 -2.75390625 13.984375 C-2.75390625 12.994375 -2.75390625 12.004375 -2.75390625 10.984375 C-5.06390625 10.984375 -7.37390625 10.984375 -9.75390625 10.984375 Z " fill="#FFFFFF" transform="translate(110.75390625,114.015625)"></path><path d="M0 0 C0.99 0 1.98 0 3 0 C4.11445498 2.22890995 4.16480286 3.53055106 4.1875 6 C4.20167969 6.70125 4.21585938 7.4025 4.23046875 8.125 C4 10 4 10 2 12 C-0.3828125 12.1953125 -0.3828125 12.1953125 -3.125 12.125 C-4.49011719 12.09792969 -4.49011719 12.09792969 -5.8828125 12.0703125 C-6.58148438 12.04710938 -7.28015625 12.02390625 -8 12 C-8.33 11.01 -8.66 10.02 -9 9 C-7 7 -7 7 -4.375 6.875 C-3.59125 6.91625 -2.8075 6.9575 -2 7 C-2.04125 6.21625 -2.0825 5.4325 -2.125 4.625 C-2 2 -2 2 0 0 Z " fill="#FFFFFF" transform="translate(74,69)"></path><path d="" fill="#FFFFFF" transform="translate(0,0)"></path></svg>